<?xml version="1.0" standalone="no"?>
<!DOCTYPE svg PUBLIC "-//W3C//DTD SVG 20010904//EN"
 "http://www.w3.org/TR/2001/REC-SVG-20010904/DTD/svg10.dtd">
<svg version="1.0" xmlns="http://www.w3.org/2000/svg"
 width="1200.000000pt" height="1230.000000pt" viewBox="0 0 1200.000000 1230.000000"
 preserveAspectRatio="xMidYMid meet">

<g transform="translate(0.000000,1230.000000) scale(0.100000,-0.100000)"
fill="#000000" stroke="none">
<path d="M5695 12044 c-131 -9 -387 -36 -515 -54 -1455 -216 -2794 -999 -3687
-2160 -958 -1244 -1393 -2785 -1222 -4329 85 -769 319 -1534 668 -2182 274
-507 579 -922 981 -1333 940 -961 2139 -1554 3440 -1700 362 -41 842 -46 1170
-11 1195 125 2234 560 3145 1318 151 126 550 525 677 677 1019 1226 1518 2822
1382 4420 -103 1214 -546 2312 -1307 3245 -682 834 -1629 1487 -2647 1825
-423 141 -777 217 -1235 265 -143 15 -709 28 -850 19z m680 -374 c364 -27 808
-108 1121 -205 78 -24 85 -28 163 -110 132 -137 223 -297 277 -484 23 -82 26
-106 22 -200 -10 -210 -111 -420 -271 -560 l-36 -32 -93 69 c-749 554 -1525
919 -2263 1067 -278 55 -392 67 -710 72 -273 5 -421 -3 -635 -32 -33 -5 -32
-4 16 19 85 41 321 125 490 176 399 121 805 195 1214 223 115 8 579 6 705 -3z
m1832 -473 c399 -184 775 -417 1126 -698 189 -151 492 -428 480 -439 -4 -4
-75 -61 -158 -125 -216 -169 -468 -376 -714 -584 -117 -100 -218 -181 -223
-181 -5 0 -73 60 -151 134 -165 156 -452 408 -607 533 l-109 88 68 70 c174
181 275 416 288 670 8 173 -35 351 -128 523 -39 74 -43 82 -35 82 3 0 76 -33
163 -73z m-3548 -137 c748 -44 1471 -295 2261 -785 178 -111 464 -305 523
-355 19 -16 -295 -194 -483 -275 -479 -207 -1035 -346 -2140 -535 -195 -34
-369 -64 -386 -67 l-31 -5 17 -57 c9 -32 23 -88 30 -124 11 -53 17 -66 29 -62
9 2 151 27 316 55 1071 181 1637 317 2120 507 263 104 525 241 681 356 l62 45
113 -91 c246 -197 749 -646 749 -667 0 -5 -82 -82 -182 -172 -350 -312 -685
-614 -978 -883 -162 -148 -385 -351 -495 -450 -405 -363 -565 -508 -565 -511
0 -2 30 -24 68 -49 37 -25 84 -57 104 -71 l37 -26 39 33 c81 71 592 529 711
640 70 63 234 214 366 335 212 193 362 329 940 847 l140 125 58 -56 c151 -147
416 -456 575 -672 47 -63 96 -129 108 -147 13 -17 24 -34 24 -37 0 -3 -39 -53
-88 -110 -344 -408 -597 -902 -721 -1411 -61 -253 -252 -1087 -249 -1090 3 -3
260 74 266 79 2 3 142 599 197 846 113 503 324 946 639 1338 81 102 101 121
111 110 20 -20 119 -196 211 -373 197 -380 358 -794 474 -1220 50 -183 109
-449 130 -586 l12 -76 47 -11 c68 -16 130 -45 185 -87 l49 -37 -7 59 c-11 92
-63 387 -91 513 -145 659 -398 1290 -753 1878 -84 140 -86 122 19 187 119 74
267 111 410 103 157 -9 261 -69 455 -262 166 -166 313 -364 466 -626 122 -208
125 -217 143 -395 68 -695 21 -1333 -147 -1990 -51 -202 -147 -495 -228 -695
-62 -155 -237 -524 -279 -590 l-22 -35 6 64 7 63 -58 -48 c-32 -26 -93 -63
-134 -82 -41 -20 -76 -36 -77 -37 -1 0 -14 -61 -28 -135 -15 -74 -42 -200 -61
-280 -36 -145 -36 -145 -105 -238 -415 -553 -990 -1058 -1609 -1411 -739 -423
-1607 -670 -2440 -697 -107 -4 -193 -4 -190 -1 3 3 55 33 115 67 144 82 343
217 480 326 143 114 428 399 539 539 299 377 597 918 838 1520 57 142 148 385
148 395 0 5 -33 -7 -73 -25 -40 -19 -106 -43 -147 -54 -40 -11 -74 -22 -75
-23 -2 -2 -34 -82 -73 -178 -205 -512 -420 -927 -657 -1270 -408 -587 -955
-1009 -1604 -1234 l-105 -37 -144 21 c-1000 144 -1947 575 -2727 1244 -132
113 -425 393 -425 406 0 8 281 315 587 642 112 119 203 218 203 220 0 1 -75 2
-167 0 l-168 -4 -34 -31 c-18 -18 -159 -168 -313 -334 l-280 -303 -60 73
c-146 174 -350 463 -475 672 -484 810 -752 1717 -792 2678 l-9 209 30 71 c16
40 54 133 85 207 131 322 283 562 518 817 l85 91 0 134 c0 73 5 150 11 171 6
22 9 41 6 43 -8 8 -270 -251 -363 -359 -104 -121 -208 -263 -274 -375 -24 -39
-45 -70 -47 -68 -6 6 37 274 68 421 198 943 618 1793 1255 2544 215 253 566
586 849 806 100 77 124 91 260 144 420 165 845 258 1260 274 39 2 88 4 110 5
22 1 118 -3 214 -8z m5398 -1257 c428 -490 787 -1106 1019 -1753 39 -107 126
-391 122 -396 -2 -1 -37 43 -78 98 -196 264 -540 494 -775 518 -203 21 -439
-41 -615 -160 -34 -23 -66 -38 -70 -34 -4 5 -56 74 -115 154 -165 222 -331
420 -533 634 -62 66 -109 123 -105 126 332 290 1054 878 1079 879 7 1 39 -29
71 -66z"/>
<path d="M2961 9917 l-24 -76 -81 -3 -81 -3 62 -45 c35 -25 63 -50 63 -57 0
-6 -9 -40 -20 -74 -10 -35 -17 -65 -15 -67 2 -2 30 16 62 41 l59 45 59 -44
c33 -25 61 -41 63 -36 1 4 -7 34 -18 67 -11 32 -20 62 -20 66 0 5 30 31 66 59
l67 50 -85 0 -84 0 -13 48 c-7 26 -18 60 -24 76 -12 29 -13 28 -36 -47z"/>
<path d="M3529 9784 l-25 -79 -78 -5 -78 -5 61 -44 c33 -25 61 -50 61 -56 0
-7 -9 -38 -20 -70 -11 -32 -20 -62 -20 -67 0 -5 27 11 59 36 33 25 62 46 66
46 4 0 33 -21 66 -46 32 -25 59 -41 59 -36 0 5 -9 35 -20 67 -11 32 -20 63
-20 70 0 6 28 31 61 56 l61 44 -78 5 -79 5 -25 79 -25 78 -26 -78z"/>
<path d="M2362 9775 l-22 -74 -77 -3 -77 -3 60 -44 c32 -24 60 -45 61 -46 1 0
-9 -36 -22 -78 -14 -46 -19 -74 -12 -70 7 4 35 24 64 46 l52 39 47 -34 c25
-18 55 -39 65 -47 18 -13 18 -11 3 40 -9 29 -20 62 -24 75 -10 25 -3 33 76 89
l49 35 -82 0 -83 0 -22 75 c-12 41 -24 75 -28 75 -3 0 -15 -34 -28 -75z"/>
<path d="M1950 9378 l-23 -78 -85 0 -85 0 67 -50 c36 -28 66 -54 66 -59 0 -4
-9 -34 -20 -66 -11 -33 -19 -63 -18 -67 2 -5 30 11 62 35 l60 45 60 -44 c33
-24 61 -42 62 -41 2 2 -6 31 -16 66 -11 34 -20 67 -20 72 0 4 30 31 66 59 l67
50 -84 0 -85 0 -26 78 -25 77 -23 -77z"/>
<path d="M3955 9322 l-20 -67 -85 -5 -85 -5 67 -48 c76 -54 74 -46 37 -155
l-18 -54 47 37 c83 64 82 64 152 10 44 -34 61 -42 56 -29 -3 10 -14 46 -24 79
l-18 60 66 50 65 50 -82 3 -82 3 -23 69 c-12 39 -24 70 -27 70 -4 0 -15 -30
-26 -68z"/>
<path d="M1754 8833 l-20 -68 -83 -5 -83 -5 66 -48 c36 -27 66 -50 66 -51 0
-1 -11 -35 -24 -76 -14 -41 -24 -76 -22 -77 1 -1 26 18 56 42 30 24 61 44 68
45 8 0 40 -21 73 -46 32 -25 59 -44 59 -42 0 2 -11 38 -24 80 l-24 77 66 48
67 48 -82 3 -82 3 -23 69 c-12 39 -25 70 -29 70 -3 0 -15 -30 -25 -67z"/>
<path d="M4119 8765 l-25 -80 -78 -5 -78 -5 61 -43 c34 -23 61 -47 61 -51 0
-5 -9 -38 -20 -73 -11 -34 -20 -66 -20 -71 0 -4 26 13 58 38 31 25 61 45 65
45 5 0 35 -21 68 -46 32 -25 59 -41 59 -36 0 5 -9 35 -20 67 -11 32 -20 64
-20 71 0 6 28 33 61 58 l62 45 -79 3 -79 3 -26 80 -25 80 -25 -80z"/>
<path d="M1809 8250 c-13 -41 -24 -77 -26 -79 -1 -2 -38 -3 -83 -3 -44 0 -80
-1 -80 -3 0 -2 29 -25 65 -51 36 -26 65 -49 65 -50 0 -1 -9 -32 -21 -69 -11
-37 -18 -69 -15 -72 2 -3 29 14 60 37 35 26 60 39 68 34 7 -4 37 -26 67 -47
39 -29 52 -35 47 -21 -4 10 -15 45 -24 78 l-16 59 25 21 c14 11 43 35 65 53
l39 31 -80 -1 -80 0 -26 79 -26 79 -24 -75z"/>
<path d="M4070 8240 c0 -3 -11 -36 -23 -75 l-23 -70 -78 -5 -79 -5 61 -45 c34
-24 62 -47 62 -50 0 -3 -9 -34 -20 -68 -11 -35 -20 -68 -20 -73 0 -5 28 11 61
36 l61 45 64 -45 c35 -26 64 -45 64 -43 0 2 -9 32 -20 68 -11 36 -20 70 -20
76 0 6 28 30 61 55 l61 44 -79 3 -79 3 -26 77 c-15 42 -27 75 -28 72z"/>
<path d="M2146 7818 c-4 -9 -15 -43 -25 -75 l-17 -58 -79 -5 -79 -5 60 -44
c32 -24 61 -45 63 -47 2 -2 -8 -37 -22 -78 -14 -42 -23 -76 -21 -76 3 0 32 21
65 46 l60 46 61 -46 c34 -25 63 -44 65 -43 2 2 -6 30 -17 62 -11 32 -20 66
-20 76 0 11 25 36 61 61 l61 43 -80 3 -80 3 -25 77 c-17 54 -26 72 -31 60z"/>
<path d="M3729 7698 l-24 -78 -84 0 -84 0 67 -50 c36 -28 66 -52 66 -54 0 -2
-9 -34 -21 -71 -11 -37 -18 -69 -16 -71 2 -3 17 6 33 19 16 13 43 33 59 44
l31 21 58 -44 c33 -24 61 -42 63 -41 2 2 -6 30 -17 62 -11 32 -20 65 -20 74 0
9 28 36 63 61 l62 45 -82 3 -82 3 -24 77 -24 77 -24 -77z"/>
<path d="M2629 7453 l-25 -78 -78 -5 -78 -5 61 -43 c34 -23 61 -46 61 -50 0
-4 -9 -36 -20 -72 -11 -36 -20 -69 -20 -73 0 -5 27 13 60 38 68 53 62 53 153
-17 43 -34 44 -31 17 47 -11 32 -20 64 -20 71 0 6 28 33 61 58 l62 45 -78 3
-78 3 -26 78 -26 78 -26 -78z"/>
<path d="M3222 7424 l-23 -76 -75 4 c-41 2 -74 0 -74 -3 0 -5 90 -77 117 -94
1 0 -9 -36 -22 -78 -14 -46 -19 -74 -12 -70 7 4 36 25 65 46 l53 40 32 -23
c18 -13 47 -35 65 -48 17 -13 32 -22 32 -20 0 3 -11 38 -25 78 -14 40 -24 74
-22 75 1 1 29 22 61 46 l60 44 -77 3 -77 3 -21 74 c-12 41 -25 75 -28 75 -3 0
-16 -34 -29 -76z"/>
<path d="M2339 7050 c-534 -34 -932 -248 -1107 -595 -65 -131 -98 -304 -89
-474 12 -219 83 -373 257 -556 27 -27 60 -68 74 -89 l26 -39 -123 -126 c-133
-136 -189 -211 -242 -324 -66 -140 -87 -291 -66 -477 49 -417 244 -697 616
-883 338 -170 895 -215 1314 -108 224 58 418 162 568 304 206 196 303 429 303
729 0 153 -28 274 -95 409 -50 101 -112 186 -237 321 -59 64 -108 120 -108
125 0 5 35 48 79 95 110 120 153 180 205 284 65 130 87 223 93 384 5 117 2
148 -16 220 -65 259 -247 463 -552 624 -206 108 -381 157 -629 176 -74 5 -139
9 -145 8 -5 0 -62 -4 -126 -8z m367 -661 c189 -35 317 -163 317 -319 -1 -80
-14 -132 -61 -229 -45 -93 -106 -157 -157 -167 -91 -17 -410 111 -522 209
-109 96 -108 293 4 412 75 81 261 123 419 94z m-424 -1582 c84 -29 183 -69
220 -90 93 -52 171 -127 205 -195 24 -50 28 -69 28 -147 0 -105 -13 -155 -58
-221 -65 -98 -169 -144 -342 -151 -161 -7 -259 21 -370 109 -135 106 -188 281
-134 441 41 121 125 246 194 289 47 28 91 22 257 -35z"/>
<path d="M5265 7054 c-543 -42 -954 -278 -1106 -634 -109 -256 -97 -587 28
-799 21 -35 72 -102 113 -149 41 -46 90 -105 109 -129 l34 -44 -111 -112
c-134 -134 -189 -205 -242 -312 -60 -119 -82 -216 -82 -360 0 -172 20 -296 74
-450 120 -342 438 -596 868 -693 176 -40 250 -47 505 -47 216 1 266 4 367 23
150 28 258 63 384 122 306 144 500 362 580 655 25 91 28 115 28 275 0 151 -3
186 -22 255 -48 173 -134 313 -304 491 -59 62 -108 116 -108 119 0 2 43 53 96
112 53 59 109 128 125 152 71 104 130 251 149 373 16 97 8 302 -14 383 -76
276 -345 527 -716 670 -215 84 -488 119 -755 99z m420 -676 c66 -16 174 -78
210 -121 41 -47 75 -132 75 -185 0 -65 -30 -165 -71 -242 -50 -92 -72 -117
-126 -142 -49 -22 -73 -18 -233 37 -148 52 -235 100 -307 170 -83 81 -98 136
-69 258 33 139 134 216 314 237 72 8 143 4 207 -12z m-499 -1559 c248 -78 404
-178 464 -296 22 -42 25 -61 25 -158 0 -103 -2 -114 -30 -169 -56 -109 -154
-169 -310 -187 -128 -15 -225 -1 -322 46 -202 99 -294 288 -235 481 24 76 98
213 140 257 32 34 89 66 118 67 12 0 79 -18 150 -41z"/>
<path d="M7574 5260 c-317 -34 -562 -262 -649 -604 -29 -114 -50 -354 -40
-458 17 -186 104 -362 240 -486 96 -88 237 -159 359 -181 97 -18 260 -14 356
9 167 40 346 151 444 276 76 97 75 95 26 159 -24 31 -60 75 -80 98 l-37 41
-16 -30 c-28 -55 -105 -124 -170 -154 -86 -39 -142 -46 -210 -26 -138 40 -239
160 -262 311 l-6 41 415 113 c369 102 415 117 420 136 3 12 1 60 -4 108 -32
278 -215 511 -476 606 -71 26 -111 35 -209 45 -16 2 -62 0 -101 -4z m136 -258
c47 -47 69 -115 77 -238 5 -82 4 -95 -16 -130 -12 -22 -32 -46 -45 -55 -20
-15 -197 -69 -226 -69 -10 0 -12 38 -7 178 9 271 42 351 146 352 26 0 42 -9
71 -38z"/>
<path d="M8603 5176 l-303 -91 0 -96 0 -96 54 -12 c67 -15 107 -55 132 -133
15 -46 18 -111 22 -494 l4 -441 -34 -6 c-18 -3 -54 -9 -80 -13 l-48 -6 0 -114
0 -114 435 0 435 0 0 114 0 114 -42 7 c-24 3 -58 9 -77 12 l-33 6 5 261 c6
321 32 493 87 584 23 38 44 40 116 13 69 -27 163 -36 208 -21 19 6 50 29 68
50 l33 38 1 -82 c2 -202 86 -357 250 -462 32 -21 122 -66 199 -101 181 -82
241 -122 266 -176 10 -23 19 -52 19 -65 0 -68 -71 -121 -175 -129 -76 -7 -86
3 -120 122 -57 196 -128 265 -270 265 -63 0 -121 -27 -162 -73 -44 -50 -56
-95 -51 -191 8 -159 91 -250 274 -301 40 -11 115 -18 229 -22 145 -4 184 -2
267 15 238 49 386 179 444 392 27 96 25 312 -3 397 -59 178 -172 269 -454 362
-206 68 -250 110 -234 218 8 53 50 103 87 103 20 0 25 -8 35 -50 31 -129 149
-220 286 -221 184 -2 278 174 191 358 -44 91 -164 150 -329 160 -250 16 -551
-127 -672 -320 l-30 -47 -5 88 c-11 183 -96 282 -247 284 -137 2 -235 -110
-317 -364 -15 -49 -31 -88 -35 -88 -3 0 -9 39 -12 88 -10 128 -74 362 -102
368 -6 1 -146 -39 -312 -90z"/>
</g>
</svg>
