<?xml version="1.0" encoding="UTF-8"?>
<svg version="1.1" xmlns="http://www.w3.org/2000/svg" width="1024" height="1024">
<path d="M0 0 C337.92 0 675.84 0 1024 0 C1024 337.92 1024 675.84 1024 1024 C686.08 1024 348.16 1024 0 1024 C0 686.08 0 348.16 0 0 Z " fill="#FDFDFD" transform="translate(0,0)"/>
<path d="M0 0 C337.92 0 675.84 0 1024 0 C1024 337.92 1024 675.84 1024 1024 C686.08 1024 348.16 1024 0 1024 C0 686.08 0 348.16 0 0 Z M274.6003418 101.35449219 C272.67229562 102.00513087 270.74164734 102.64755263 268.81054688 103.2890625 C261.77835458 105.63848815 254.84042086 108.13717176 248 111 C247.19788086 111.3309668 246.39576172 111.66193359 245.56933594 112.00292969 C237.2864448 115.53062297 230.68274187 121.68871977 223.86865234 127.43115234 C221.39635706 129.50679508 218.88586267 131.53378231 216.375 133.5625 C203.53506299 144.02301412 203.53506299 144.02301412 191.55859375 155.4375 C189.84067829 157.15972101 188.03584357 158.73134273 186.1875 160.3125 C179.29770113 166.26763624 172.94868361 172.76350854 167.03515625 179.68359375 C164.85202086 182.16842924 162.60126129 184.57839681 160.33691406 186.98901367 C154.27049627 193.4508041 148.51877904 200.05943382 143 207 C142.04533022 208.17534045 141.08953404 209.34976657 140.1328125 210.5234375 C133.41697631 218.79082256 127.04267313 227.22885006 121 236 C120.60103516 236.5765332 120.20207031 237.15306641 119.79101562 237.74707031 C93.59698953 275.77269756 73.21430144 317.15538116 58.97753906 361.00683594 C58.05027891 363.8460491 57.10211369 366.67738317 56.1484375 369.5078125 C51.80175411 382.56918735 48.53197019 395.76438365 45.60839844 409.2121582 C45.06601703 411.69749257 44.50173464 414.17672084 43.93359375 416.65625 C42.90050565 421.30593425 42.11439992 425.98325662 41.375 430.6875 C41.2409375 431.50283203 41.106875 432.31816406 40.96875 433.15820312 C40.28288779 437.4868335 39.8436407 441.60061774 40 446 C42.98226621 442.41331013 45.4886944 438.71697106 47.9375 434.75 C56.68245152 420.94247355 66.88493459 408.46716631 78.27685547 396.77001953 C79.96794928 395.0329226 81.6424041 393.28089456 83.31640625 391.52734375 C98.60326101 375.69836949 98.60326101 375.69836949 108 371 C107.83701416 371.53915039 107.67402832 372.07830078 107.50610352 372.63378906 C106.90718336 375.43395024 106.88773211 377.99549433 106.90234375 380.859375 C106.90556641 381.97441406 106.90878906 383.08945312 106.91210938 384.23828125 C106.92048828 385.39714844 106.92886719 386.55601562 106.9375 387.75 C106.94201172 388.92433594 106.94652344 390.09867187 106.95117188 391.30859375 C106.96294906 394.20578072 106.97939674 397.10286454 107 400 C106.13411255 400.37910522 106.13411255 400.37910522 105.25073242 400.76586914 C102.7269348 402.14972823 101.02576674 403.71540878 98.98828125 405.74609375 C98.23498535 406.49511963 97.48168945 407.24414551 96.70556641 408.01586914 C95.91585449 408.81500732 95.12614258 409.61414551 94.3125 410.4375 C93.49958496 411.25790771 92.68666992 412.07831543 91.84912109 412.92358398 C86.17511165 418.69958657 80.82001549 424.48192401 76 431 C75.54995605 431.60602051 75.09991211 432.21204102 74.63623047 432.83642578 C63.8098441 447.51029398 54.39539408 462.82208548 47.09765625 479.55322266 C45.88445151 482.25756828 44.58117707 484.91054508 43.28125 487.57421875 C35.46741721 504.29889691 34.71801683 518.76735045 36 537 C36.07976074 538.299375 36.15952148 539.59875 36.24169922 540.9375 C38.73386562 579.81720929 45.21640689 619.20640256 57.14746094 656.29931641 C58.00202664 659.00642002 58.80978683 661.7231361 59.6015625 664.44921875 C59.85873047 665.33158203 60.11589844 666.21394531 60.38085938 667.12304688 C60.8527754 668.74936116 61.32070994 670.37684036 61.78320312 672.00585938 C63.70399871 678.55016291 66.32920069 684.73140065 69 691 C69.78037172 692.91022413 70.55773949 694.82167833 71.33203125 696.734375 C81.09989452 720.5575149 92.21211952 744.21390619 106 766 C106.42555176 766.67949707 106.85110352 767.35899414 107.28955078 768.05908203 C115.86813076 781.7166317 124.86516438 795.2534184 135.125 807.71484375 C136.4853286 809.37274423 137.81488105 811.05604989 139.125 812.75390625 C139.82625 813.66011719 140.5275 814.56632813 141.25 815.5 C141.87390625 816.3146875 142.4978125 817.129375 143.140625 817.96875 C145.02460977 820.02688462 146.50635194 820.84431241 149 822 C158.98463523 812.21312312 158.98463523 812.21312312 168.36328125 801.85546875 C171.02445211 798.83862827 173.92616711 796.065999 176.7890625 793.2421875 C179.4856639 790.50747159 182.0024816 787.64926073 184.4921875 784.7265625 C184.98976562 784.15679688 185.48734375 783.58703125 186 783 C186.58382446 782.21991577 186.58382446 782.21991577 187.17944336 781.42407227 C189.90598094 779.29132535 192.21403044 779.56301244 195.63671875 779.48828125 C196.93544922 779.45283203 198.23417969 779.41738281 199.57226562 779.38085938 C200.94400517 779.3577595 202.3157501 779.3349771 203.6875 779.3125 C205.07099607 779.27932458 206.45446129 779.24483469 207.83789062 779.20898438 C211.22517883 779.12636759 214.61220357 779.05725942 218 779 C213.51598633 784.18115089 208.94572431 789.26033363 204.25 794.25 C198.1196393 800.79138927 192.04650315 807.38104684 186 814 C184.18834255 815.97993913 182.37563625 817.95891507 180.5625 819.9375 C180.1190625 820.4214624 179.675625 820.9054248 179.21875 821.40405273 C173.82803552 827.28368798 168.41405282 833.14186257 163 839 C164.60177782 842.98087165 167.38230594 845.65493174 170.3828125 848.61328125 C171.18245926 849.41224068 171.18245926 849.41224068 171.9982605 850.2273407 C173.12733517 851.35339921 174.25883441 852.4770312 175.39257812 853.59838867 C177.10335871 855.29108744 178.80617492 856.99147489 180.5078125 858.69335938 C186.17091277 864.33819711 191.89017923 869.8352173 198 875 C199.13009048 875.98431912 200.25902349 876.96996893 201.38671875 877.95703125 C214.32150301 889.17943195 227.92011999 899.26514774 242 909 C242.61568848 909.42780762 243.23137695 909.85561523 243.86572266 910.29638672 C277.73117709 933.73169021 317.05932424 955.00802121 356.7890625 966.359375 C358.98621134 966.9960047 361.14646055 967.70245412 363.3125 968.4375 C367.97901799 970.00929402 372.6746942 971.47297529 377.38671875 972.90234375 C379.85198749 973.65125242 382.31280651 974.41492848 384.76953125 975.19140625 C403.42036241 980.99786199 422.66027504 984.43470775 442 987 C443.04752441 987.14139404 443.04752441 987.14139404 444.11621094 987.28564453 C448.16123201 987.81505228 452.17225363 988.23907512 456.25 988.375 C457.24515625 988.42398438 458.2403125 988.47296875 459.265625 988.5234375 C464.93838883 987.72830115 469.79665102 985.32288092 475 983 C476.99009092 982.15048014 478.98096937 981.30280264 480.97265625 980.45703125 C511.75128297 967.16080455 539.29383346 950.8415502 564 928 C564.94359375 927.15953125 565.8871875 926.3190625 566.859375 925.453125 C613.62133514 883.71391539 644.51163681 822.54145206 665 764 C665.845625 763.89042969 666.69125 763.78085937 667.5625 763.66796875 C674.14222001 762.74830334 679.85972095 761.50159517 686 759 C686.99 759 687.98 759 689 759 C688.11016604 761.75206379 687.21324818 764.50150678 686.3125 767.25 C685.94608398 768.38695312 685.94608398 768.38695312 685.57226562 769.546875 C666.99021314 825.99868001 635.97762065 882.88851531 595.42041016 926.46191406 C593.97898411 928.02275698 592.55574669 929.5984711 591.13671875 931.1796875 C586.04565667 936.84051376 580.86434849 942.13049635 575 947 C574.0925 947.79535156 573.185 948.59070313 572.25 949.41015625 C555.0426163 964.43558412 535.79816655 976.81260513 516.24609375 988.5390625 C515.50488281 989.02117188 514.76367188 989.50328125 514 990 C514 990.33 514 990.66 514 991 C607.80323624 992.88456945 700.84486061 962.60336693 782 907 C782.62116699 906.57025879 783.24233398 906.14051758 783.88232422 905.69775391 C801.21921784 893.66401879 817.42514458 880.22679993 833 866 C833.96808594 865.12472656 834.93617188 864.24945312 835.93359375 863.34765625 C844.41503208 855.65982659 852.71384026 847.82660223 860.1640625 839.1171875 C862.3520617 836.59400545 864.61293113 834.14445481 866.875 831.6875 C870.99339004 827.16412455 874.97629508 822.56982128 878.76953125 817.76953125 C881 815 881 815 883.38671875 812.44921875 C891.07399874 803.66920144 892.5696894 794.04691654 894.51220703 782.80419922 C894.96056854 780.22668153 895.45055948 777.66270874 895.96484375 775.09765625 C897.48499615 767.60797747 897.48499615 767.60797747 898 760 C899.03447266 759.76216797 899.03447266 759.76216797 900.08984375 759.51953125 C906.71057881 757.87569991 912.21672826 755.61275988 918 752 C918.33 754.31 918.66 756.62 919 759 C922.44229872 754.96960925 925.01812727 750.74457398 927.5625 746.125 C927.99087158 745.35051514 928.41924316 744.57603027 928.8605957 743.77807617 C933.88221824 734.56556418 938.34443215 725.08787404 942.78515625 715.58544922 C943.82983824 713.36214088 944.89209351 711.14934039 945.96875 708.94140625 C950.61822012 699.29375576 954.41450249 689.38193246 958.12988281 679.34375 C958.90841706 677.24668804 959.70292632 675.15646328 960.5 673.06640625 C967.70603511 653.81263086 972.6735299 634.06971211 977 614 C977.23847656 612.92733887 977.47695313 611.85467773 977.72265625 610.74951172 C982.14624937 590.70747516 984.1603054 570.41214303 986 550 C986.08735413 549.07448334 986.17470825 548.14896667 986.26470947 547.19540405 C986.88319171 540.33493519 987.17158733 533.53526016 987.203125 526.6484375 C987.21045654 525.60282654 987.21778809 524.55721558 987.2253418 523.47991943 C989.47682977 475.94882072 989.47682977 475.94882072 973.73095703 432.56982422 C971.93562127 429.90442164 970.2566076 427.18882443 968.58984375 424.44140625 C951.21463955 396.0249131 927.26664851 358.24633135 893.29296875 348.6875 C877.15474232 345.31819057 862.35725972 350.25609169 848.8125 358.8125 C847.20361358 359.86783948 845.59763307 360.92770082 844 362 C844.55942421 365.52487101 845.40797855 368.07084698 847.30078125 371.08984375 C848.01512329 372.24818726 848.01512329 372.24818726 848.74389648 373.42993164 C849.26153564 374.2574292 849.7791748 375.08492676 850.3125 375.9375 C888.81510615 438.93914192 919.38537158 516.34785062 922 591 C921.5153125 590.67386719 921.030625 590.34773438 920.53125 590.01171875 C913.88079716 585.67613507 907.85740752 583.20198302 900 582 C899.76216797 580.05287109 899.76216797 580.05287109 899.51953125 578.06640625 C897.1308618 559.21191239 893.91713757 540.38855676 888.61279297 522.11376953 C887.87758291 519.5777342 887.16049161 517.03674742 886.44140625 514.49609375 C883.57857396 504.45953165 880.58659038 494.47311535 877.3125 484.5625 C877.03946045 483.72960449 876.7664209 482.89670898 876.48510742 482.03857422 C874.87281307 477.23816842 873.00002632 472.64586992 870.8996582 468.03930664 C869.73170788 465.39184693 868.83260328 462.68804004 867.9375 459.9375 C864.43057072 449.93625724 859.81564355 440.42094033 855.32080078 430.83398438 C854.18276548 428.39215188 853.06679826 425.94262431 851.96484375 423.484375 C844.83172698 407.70340865 835.95704548 392.80182909 827 378 C821.5910613 382.07534126 817.80983035 386.81212034 813.8125 392.25 C813.1525 393.14404541 812.4925 394.03809082 811.8125 394.95922852 C809.8585787 397.62808582 807.92388864 400.30942968 806 403 C805.49774902 403.7017334 804.99549805 404.4034668 804.47802734 405.12646484 C791.76040598 423.17363369 780.96997885 444.05633775 773.73364258 464.91259766 C773.18603734 466.4706758 772.61730604 468.02135882 772.0378418 469.56787109 C769.71991809 475.76754 767.80806563 481.95985122 766.1875 488.375 C765.81129517 489.84259766 765.81129517 489.84259766 765.42749023 491.33984375 C760.4926808 510.72128885 755.92209788 530.18282282 751.5703125 549.70214844 C749.4625879 559.10307917 747.1941089 568.45433285 744.77709961 577.78051758 C744.5425708 578.69341553 744.30804199 579.60631348 744.06640625 580.546875 C743.85959229 581.33932617 743.65277832 582.13177734 743.43969727 582.94824219 C742.89522751 585.13917565 742.89522751 585.13917565 743 588 C741.783125 588.2475 740.56625 588.495 739.3125 588.75 C732.53758799 590.24954263 725.22532357 591.88733822 719 595 C719.30550781 593.78957031 719.61101563 592.57914063 719.92578125 591.33203125 C721.63021654 584.55792772 723.31690742 577.77943317 725 571 C725.20316833 570.18215027 725.40633667 569.36430054 725.61566162 568.52166748 C732.85172794 539.56248017 732.85172794 539.56248017 739.375 510.4375 C745.4441282 481.56348089 753.94383173 454.56059675 767 428 C767.41362793 427.15356934 767.82725586 426.30713867 768.25341797 425.43505859 C777.53935751 406.61989613 789.0567759 389.04011119 802.40625 372.859375 C802.99986328 372.13782227 803.59347656 371.41626953 804.20507812 370.67285156 C805.37874805 369.25205963 806.55947933 367.83706388 807.74804688 366.42871094 C808.55338867 365.45853027 808.55338867 365.45853027 809.375 364.46875 C809.85710938 363.89576172 810.33921875 363.32277344 810.8359375 362.73242188 C812.16951021 360.74772558 812.76582439 359.38454379 813 357 C812.19101109 355.09668728 812.19101109 355.09668728 810.7890625 353.3125 C810.29059814 352.61979004 809.79213379 351.92708008 809.27856445 351.21337891 C808.73288818 350.48296387 808.18721191 349.75254883 807.625 349 C807.07352295 348.24251465 806.5220459 347.4850293 805.95385742 346.70458984 C804.31479724 344.46041496 802.65901436 342.2294447 801 340 C800.16981979 338.86773931 799.34030829 337.73498776 798.51171875 336.6015625 C786.78488664 320.72972223 773.79271192 305.83471931 760.20068359 291.54223633 C756.33099918 287.46624613 752.62550522 283.29525504 749 279 C746.18648214 280.28895717 744.0674293 281.66268505 741.828125 283.79296875 C741.2503833 284.33719482 740.6726416 284.8814209 740.07739258 285.44213867 C739.47435303 286.01810791 738.87131348 286.59407715 738.25 287.1875 C736.98906652 288.37583379 735.72735409 289.56334163 734.46484375 290.75 C733.56161377 291.60078125 733.56161377 291.60078125 732.64013672 292.46875 C730.14483185 294.79839456 727.57232051 297.03180907 724.98828125 299.26171875 C722.45947072 301.47256489 719.98127436 303.73596443 717.5 306 C713.70990918 309.45643771 709.88943967 312.86843854 706.015625 316.23046875 C703.71392236 318.25114956 701.45235621 320.31312618 699.1875 322.375 C695.66989182 325.55759788 692.07252949 328.59117962 688.375 331.5625 C684.27853546 334.87539326 680.5375269 338.35147837 676.8671875 342.125 C675.1170544 343.88245583 673.318842 345.51011416 671.4375 347.125 C667.39645081 350.6001429 663.51210587 354.23005592 659.625 357.875 C652.5828317 364.47323196 645.47883998 370.98930475 638.1875 377.3125 C634.02119645 380.94012996 629.97727903 384.69571248 625.92529297 388.44970703 C620.99391551 393.01569155 616.00719152 397.51729335 611 402 C605.64060582 406.80527265 600.30128222 411.63064912 595 416.5 C589.69870037 421.36936687 584.35807409 426.193239 579 431 C577.33307353 432.49971128 575.66640851 433.99971321 574 435.5 C573.18144531 436.23605469 572.36289062 436.97210938 571.51953125 437.73046875 C569.78518814 439.29272201 568.05357021 440.85800423 566.32421875 442.42578125 C565.45410156 443.21339844 564.58398438 444.00101562 563.6875 444.8125 C562.90761719 445.52019531 562.12773438 446.22789062 561.32421875 446.95703125 C560.17373047 447.96830078 560.17373047 447.96830078 559 449 C558.16082031 449.76699219 557.32164062 450.53398437 556.45703125 451.32421875 C554 453 554 453 552 452.96484375 C549.45222447 451.7357411 547.28154222 450.2353991 545 448.5625 C542.07714661 446.42828235 539.29122252 444.51609556 536 443 C537.3625182 439.91625125 538.87225846 437.92531716 541.34375 435.64453125 C542.00810059 435.02658691 542.67245117 434.40864258 543.35693359 433.77197266 C544.06414551 433.12534668 544.77135742 432.4787207 545.5 431.8125 C546.22396973 431.1426709 546.94793945 430.4728418 547.69384766 429.78271484 C553.08464114 424.80558029 558.52037236 419.8791205 564 415 C569.87949288 409.73136353 575.72502134 404.42766208 581.53857422 399.08642578 C585.48063202 395.46771524 589.45499497 391.88654298 593.4375 388.3125 C596.30600409 385.72384997 599.1547665 383.11414854 602 380.5 C606.45064847 376.41082552 610.93078083 372.35630916 615.4296875 368.3203125 C618.34428474 365.68920193 621.23537409 363.03345583 624.125 360.375 C627.99362895 356.81741659 631.90334264 353.31710305 635.875 349.875 C638.61823418 347.45449925 641.30884568 344.97799358 644 342.5 C647.30028923 339.46111982 650.60949283 336.43843955 654 333.5 C657.34500576 330.59914438 660.6160534 327.62175605 663.875 324.625 C671.15513458 317.93057078 678.48899541 311.30276304 685.9453125 304.8046875 C690.8379201 300.50737816 695.66397213 296.13305547 700.47265625 291.7421875 C704.68330752 287.91189617 708.94334139 284.19830293 713.375 280.625 C719.49578831 275.67758169 725.25037795 270.36832076 731 265 C730.43685945 261.47656659 729.3869187 260.14139839 726.625 257.9375 C723.05193879 254.959949 719.76419355 251.81420209 716.5 248.5 C712.16295868 244.11516151 707.69323224 239.9982278 703 236 C701.85183823 235.00117859 700.70481098 234.00105231 699.55859375 233 C692.14461661 226.5304846 684.65378115 220.18538161 677 214 C675.62322273 212.87688434 674.24695932 211.75313859 672.87109375 210.62890625 C671.41411481 209.44004005 669.95708367 208.25123783 668.5 207.0625 C667.80463135 206.49402344 667.1092627 205.92554688 666.39282227 205.33984375 C665.40946899 204.53933594 665.40946899 204.53933594 664.40625 203.72265625 C663.82166016 203.24578369 663.23707031 202.76891113 662.63476562 202.27758789 C659.48927928 199.64287464 659.48927928 199.64287464 655.58203125 199.1875 C652.75598305 200.07678597 651.03263517 201.20053571 648.6875 203 C641.81530764 207.97852158 634.46749098 211.99564197 627 216 C626.37383789 216.33644531 625.74767578 216.67289063 625.10253906 217.01953125 C616.52465242 221.57866211 607.70637412 225.49443577 598.75 229.25 C597.76837891 229.66241943 596.78675781 230.07483887 595.77539062 230.49975586 C588.94450658 233.31869654 582.0302013 235.7295586 575 238 C573.58259121 238.47696695 572.16575911 238.95565844 570.75 239.4375 C553.3346523 245.22188334 535.71517425 250.78171791 517.73876953 254.53149414 C513.07208812 255.50828162 508.46506957 256.64613124 503.84765625 257.8359375 C493.56386892 260.45263794 483.15941987 262.45507461 472.75 264.5 C470.82414575 264.88114173 468.89836416 265.26265082 466.97265625 265.64453125 C463.17374498 266.3975908 459.37427551 267.14774338 455.57446289 267.89624023 C451.86588444 268.62813842 448.15954625 269.37011814 444.45483398 270.12133789 C443.56447449 270.30140381 442.67411499 270.48146973 441.7567749 270.66699219 C440.09847318 271.00291411 438.44051988 271.34056352 436.78302002 271.68041992 C431.39774229 272.7696386 426.00034979 273.65417184 420.5625 274.4375 C419.67860596 274.56543945 418.79471191 274.69337891 417.8840332 274.82519531 C417.15531006 274.92928711 416.42658691 275.03337891 415.67578125 275.140625 C408.51306403 276.19709622 401.38279728 277.44793482 394.25 278.6875 C393.59001007 278.80213593 392.93002014 278.91677185 392.25003052 279.03488159 C388.49949859 279.686952 384.74952304 280.34215469 381 281 C380.88027832 280.27192139 380.76055664 279.54384277 380.63720703 278.79370117 C379.77280657 273.75833839 378.92365879 269.02441523 376.875 264.3125 C376.52179688 263.48363281 376.16859375 262.65476562 375.8046875 261.80078125 C375.53914063 261.20652344 375.27359375 260.61226562 375 260 C375.804375 259.94392578 375.804375 259.94392578 376.625 259.88671875 C382.68797109 259.37814716 388.58861316 258.38446558 394.55957031 257.22509766 C399.61051854 256.24783375 404.67124506 255.38186949 409.75 254.5625 C415.94910752 253.55451504 422.09981869 252.39638941 428.25 251.125 C436.83953209 249.35191568 445.46840403 247.90564355 454.125 246.5 C463.96497081 244.89834401 473.69336151 243.10367783 483.3984375 240.828125 C486.36712828 240.14551931 489.30985522 239.56449015 492.3125 239.0625 C507.41905348 236.4211701 522.2724498 232.22305505 537 228 C538.23363281 227.649375 539.46726562 227.29875 540.73828125 226.9375 C543.03487441 226.28352019 545.33049359 225.62610775 547.625 224.96484375 C549.95482318 224.29879476 552.28844877 223.64595427 554.625 223.00390625 C555.82125 222.67261719 557.0175 222.34132812 558.25 222 C559.83554688 221.566875 559.83554688 221.566875 561.453125 221.125 C565.18814743 219.94032328 568.7676702 218.5266108 572.39404297 217.04833984 C574.88288421 216.04711404 577.38440745 215.1010561 579.90234375 214.17578125 C596.41076164 208.0903061 611.91266069 200.98685583 627.125 192.125 C628.57604126 191.28545776 628.57604126 191.28545776 630.05639648 190.42895508 C630.94786377 189.89810303 631.83933105 189.36725098 632.7578125 188.8203125 C633.5533252 188.34867676 634.34883789 187.87704102 635.16845703 187.39111328 C637.29849144 186.04487115 637.29849144 186.04487115 638 183 C612.64928733 165.30233266 586.68342025 148.91450358 559.42871094 134.31054688 C557.35015829 133.1889475 555.28529287 132.04802629 553.2265625 130.890625 C537.80283971 122.34934144 521.39811036 115.43970686 505 109 C503.81277344 108.51917969 502.62554687 108.03835937 501.40234375 107.54296875 C489.19733048 102.76829051 476.65271828 99.37215993 464 96 C462.668479 95.63793457 462.668479 95.63793457 461.31005859 95.26855469 C451.59493095 92.63387992 441.86339265 90.49656218 431.9375 88.8125 C431.0292749 88.6575708 430.1210498 88.5026416 429.18530273 88.34301758 C412.53238256 85.65932477 396.10440929 84.64997383 379.25 84.75 C378.28244781 84.75376648 377.31489563 84.75753296 376.31802368 84.76141357 C341.25602722 84.92122509 307.92186077 90.10074151 274.6003418 101.35449219 Z " fill="#033DA8" transform="translate(0,0)"/>
<path d="M0 0 C161.04 0 322.08 0 488 0 C488 337.92 488 675.84 488 1024 C323.66 1024 159.32 1024 -10 1024 C-10 1023.67 -10 1023.34 -10 1023 C-8.76660889 1022.92483154 -7.53321777 1022.84966309 -6.26245117 1022.7722168 C-1.58932458 1022.48496443 3.08296982 1022.18563515 7.75512695 1021.88305664 C9.75915771 1021.75487421 11.76338781 1021.62976332 13.76782227 1021.50805664 C25.68004505 1020.78239353 37.37125713 1019.69019706 49.1340332 1017.64575195 C52.23089648 1017.12846724 55.24921343 1016.74489736 58.375 1016.5 C62.00055079 1016.18705036 65.40610887 1015.49324323 68.9453125 1014.64453125 C73.50513275 1013.57121873 78.06819319 1012.55092338 82.65625 1011.60546875 C102.43060224 1007.52073347 121.59920995 1002.38255792 140.68164062 995.79736328 C143.15412724 994.94699036 145.63158557 994.11212947 148.109375 993.27734375 C156.61075276 990.3877992 164.89421535 987.38140878 172.98046875 983.45703125 C175.31244631 982.33176912 177.64640516 981.26405963 180.015625 980.22265625 C206.26136239 968.60981254 231.16863578 955.01837826 255 939 C255.68529785 938.53996582 256.3705957 938.07993164 257.07666016 937.60595703 C265.91004926 931.65333358 274.56084877 925.50356609 283 919 C283.80703369 918.3822168 283.80703369 918.3822168 284.63037109 917.75195312 C293.45434367 910.98580523 301.9148315 903.86220299 310.26123047 896.51708984 C312.03581337 894.96875256 313.83100229 893.44693521 315.62890625 891.92578125 C318.56555551 889.41155738 321.29509865 886.76545885 324 884 C325.39170932 882.61695853 326.78511499 881.23562311 328.1796875 879.85546875 C329.74485315 878.29954101 331.3099557 876.7435498 332.875 875.1875 C333.65230469 874.41857422 334.42960937 873.64964844 335.23046875 872.85742188 C339.45422571 868.65141179 343.51001597 864.37113805 347.39599609 859.85131836 C349.3518691 857.59387772 351.38068405 855.4137944 353.42358398 853.23535156 C394.68907939 809.22807808 427.41989234 753.51490502 448 697 C448.47654257 695.72216245 448.95452569 694.44486162 449.43359375 693.16796875 C449.69124512 692.48001221 449.94889648 691.79205566 450.21435547 691.08325195 C450.71602405 689.75300398 451.2223927 688.4245127 451.73486328 687.09838867 C467.01188965 647.36902063 475.78926404 603.35400472 479 561 C479.10006348 559.77297363 479.20012695 558.54594727 479.30322266 557.28173828 C482.38257782 518.83101845 482.36343196 479.71409017 476.38671875 441.53857422 C475.98718411 438.91587144 475.62905516 436.29019389 475.28125 433.66015625 C473.09460275 417.25283382 469.72542533 401.22832198 465.56396484 385.21289062 C464.95383691 382.81886483 464.37673401 380.4180925 463.80078125 378.015625 C455.18800018 342.75775004 441.16230952 309.41336558 425 277 C424.50886719 276.01370605 424.01773437 275.02741211 423.51171875 274.01123047 C416.41364445 259.85487978 408.58238126 246.3064095 400 233 C399.6189209 232.40687012 399.2378418 231.81374023 398.84521484 231.20263672 C396.62262641 227.75980365 394.32930392 224.37136094 392 221 C391.56365234 220.36674805 391.12730469 219.73349609 390.67773438 219.08105469 C384.17162899 209.66524994 377.44756236 200.47907837 370.26416016 191.56835938 C369.06994134 190.08677157 367.88430494 188.59827785 366.69921875 187.109375 C361.94212682 181.19469587 356.94404225 175.57055587 351.7734375 170.01953125 C349.78095112 167.8768305 347.87101459 165.67940016 345.97265625 163.453125 C341.1722069 157.94553656 335.97603796 152.82668852 330.80297852 147.67260742 C329.066064 145.941053 327.33456111 144.20421641 325.60351562 142.46679688 C319.90579664 136.76529956 314.17575406 131.18883827 308 126 C306.95526966 125.09949116 305.91097742 124.19847373 304.8671875 123.296875 C284.9925768 106.38010454 264.13250286 90.8468468 242 77 C241.18950195 76.49227051 240.37900391 75.98454102 239.54394531 75.46142578 C213.79125959 59.43421454 186.30781718 45.23486265 157.84423828 34.70410156 C155.23061634 33.70626126 152.68313493 32.56891434 150.125 31.4375 C141.67443308 27.8775236 132.80407322 25.51447338 124 23 C123.24944336 22.7834375 122.49888672 22.566875 121.72558594 22.34375 C91.81915261 13.73371072 62.00619497 6.95780112 31 4 C28.86607221 3.79099278 26.73231202 3.58032608 24.59855652 3.36956787 C16.40086228 2.56018578 8.20122637 1.77282539 0 1 C0 0.67 0 0.34 0 0 Z " fill="#FDFEFE" transform="translate(536,0)"/>
<path d="M0 0 C160.05 0 320.1 0 485 0 C485 0.33 485 0.66 485 1 C484.09797852 1.05945801 483.19595703 1.11891602 482.26660156 1.18017578 C452.22385506 3.23525406 422.65659144 7.14459828 393.39013672 14.41308594 C391.03737656 14.99082194 388.67894074 15.53411345 386.31640625 16.0703125 C365.30631071 20.94199857 344.29340661 27.73765683 324.37548828 36.01464844 C322.64784403 36.73127456 320.91653866 37.43909388 319.18310547 38.14160156 C281.08938856 53.58319435 244.8105774 73.13889891 212 98 C210.9584375 98.78761719 209.916875 99.57523437 208.84375 100.38671875 C183.36589438 119.7665099 157.53892796 141.26727933 136.84375 165.81640625 C135.30430908 167.63960006 133.73982518 169.43025273 132.15625 171.21484375 C124.49907617 179.87892779 117.35906718 188.84175322 110.43115234 198.09716797 C109.19314187 199.74320237 107.93616499 201.3749397 106.67578125 203.00390625 C91.31514123 222.96422036 78.17188922 244.73167651 66.17333984 266.84570312 C65.07197372 268.86785349 63.953799 270.87974484 62.83203125 272.890625 C36.24281672 321.15635704 19.52925724 375.72638554 11 430 C10.88060059 430.72590332 10.76120117 431.45180664 10.63818359 432.19970703 C0.7756188 492.56474372 3.48319932 554.08202703 15 614 C15.32701904 615.71848145 15.32701904 615.71848145 15.66064453 617.47167969 C16.98547099 624.34337534 18.43707959 631.17868907 20 638 C20.22123535 638.97259766 20.4424707 639.94519531 20.67041016 640.94726562 C23.98414126 655.32311389 28.1824434 669.26538107 33.03613281 683.19335938 C34.03529291 686.10276779 34.98177261 689.02666358 35.9296875 691.953125 C37.97845677 698.10936382 40.41685217 704.05087538 43 710 C43.4640625 711.07024414 43.928125 712.14048828 44.40625 713.24316406 C58.18116417 744.74045784 73.55890748 774.59852709 93 803 C93.54914063 803.80969238 94.09828125 804.61938477 94.6640625 805.45361328 C102.85279563 817.51002716 111.54738635 828.91093035 121 840 C122.04214085 841.2365797 123.08382167 842.47354727 124.125 843.7109375 C134.42463592 855.87846794 145.28320276 867.45654318 156.57421875 878.70458984 C158.26681347 880.39175958 159.95390597 882.08430196 161.640625 883.77734375 C167.25904537 889.39956295 172.93199507 894.85925947 179 900 C180.2037451 901.05640748 181.40557522 902.11500109 182.60546875 903.17578125 C195.75727808 914.72127658 209.60618807 925.05972735 224 935 C224.93948486 935.6496875 224.93948486 935.6496875 225.89794922 936.3125 C254.39881068 955.92072503 285.65001853 973.61551214 318 986 C318.83112305 986.32210449 319.66224609 986.64420898 320.51855469 986.97607422 C326.6662262 989.35093778 332.83120085 991.68064773 339 994 C339.67675781 994.25458984 340.35351562 994.50917969 341.05078125 994.77148438 C349.85354682 998.06074046 358.76441395 1000.84388227 367.80664062 1003.38378906 C369.22582019 1003.7824989 370.64387888 1004.18522961 372.06054688 1004.59277344 C388.8012507 1009.38837067 405.91106076 1012.71494794 423 1016 C424.11197754 1016.21575684 425.22395508 1016.43151367 426.36962891 1016.65380859 C448.34253807 1020.79983922 470.71783786 1021.69793209 493 1023 C493 1023.33 493 1023.66 493 1024 C330.31 1024 167.62 1024 0 1024 C0 686.08 0 348.16 0 0 Z " fill="#FDFEFE" transform="translate(0,0)"/>
<path d="M0 0 C1.82978394 0.01015137 1.82978394 0.01015137 3.6965332 0.02050781 C23.88239161 0.24924275 43.99396642 2.3220694 62.375 11.25 C63.07882812 11.58773438 63.78265625 11.92546875 64.5078125 12.2734375 C75.84520488 17.77150404 85.93699858 23.88585462 95.375 32.25 C96.34953125 33.10078125 97.3240625 33.9515625 98.328125 34.828125 C110.88856882 46.54652789 120.22982773 62.15426021 121.55200195 79.58325195 C122.31490245 109.52481673 113.02637572 129.45670332 92.65234375 151.078125 C91.09115437 152.74015784 91.09115437 152.74015784 89.375 155.25 C89.63102669 159.1384053 91.76131658 160.91913902 94.5 163.5 C111.11126278 179.61266247 125.95632144 199.91152705 126.90625 223.8359375 C126.92301849 226.43225841 126.91206197 229.02888947 126.875 231.625 C126.86946106 232.30287567 126.86392212 232.98075134 126.85821533 233.6791687 C126.75881685 244.06447548 126.03649015 253.4708648 122.375 263.25 C121.72144531 265.06757812 121.72144531 265.06757812 121.0546875 266.921875 C117.90566016 274.94070965 113.82535569 281.60297949 108.375 288.25 C107.69695312 289.09175781 107.01890625 289.93351562 106.3203125 290.80078125 C90.13248506 309.86446814 66.55848767 320.67871254 42.375 325.25 C41.11647217 325.50724854 39.85794434 325.76449707 38.5612793 326.02954102 C28.27158052 328.06924998 18.40979632 328.69858596 7.9375 328.5625 C6.39103211 328.55180876 4.84456401 328.54114824 3.2980957 328.53051758 C-7.1078333 328.42718635 -17.35521908 328.00391532 -27.625 326.25 C-29.37876953 325.95802734 -29.37876953 325.95802734 -31.16796875 325.66015625 C-58.96897307 320.3512639 -85.10260541 307.12413775 -101.58984375 283.42578125 C-103.32798061 280.73222033 -104.98724062 278.00539046 -106.625 275.25 C-107.32625 274.1775 -108.0275 273.105 -108.75 272 C-111.98383637 266.18464619 -113.73055839 259.59572838 -115.625 253.25 C-115.94984375 252.21488281 -116.2746875 251.17976562 -116.609375 250.11328125 C-122.13321053 229.34678635 -120.25725613 205.85469299 -109.52734375 187.23046875 C-104.91625373 180.00611211 -99.25598044 173.75332452 -93.5 167.4375 C-93.00927002 166.89802734 -92.51854004 166.35855469 -92.01293945 165.80273438 C-89.54239846 163.13903372 -87.14120729 160.8707827 -84.1953125 158.73828125 C-81.30689279 156.50066512 -81.30689279 156.50066512 -81.4375 153.28515625 C-82.90091815 149.54477498 -84.78462864 147.5239264 -87.625 144.6875 C-105.90180057 125.70028321 -111.3377856 106.69462919 -110.9296875 80.87890625 C-110.22808657 60.30924269 -101.35513953 44.16948115 -86.625 30.25 C-63.46565617 8.75201513 -31.08663172 -0.25215365 0 0 Z " fill="#DC0230" transform="translate(203.625,437.75)"/>
<path d="M0 0 C0.89117523 0.00087616 1.78235046 0.00175232 2.70053101 0.00265503 C15.65502277 0.04474864 28.06546426 0.38656401 40.5 4.375 C41.67731689 4.7450415 41.67731689 4.7450415 42.87841797 5.12255859 C70.57020332 14.0711637 97.922816 29.78431315 111.625 56.49804688 C113.85097642 61.27296504 115.26241254 66.26995173 116.5 71.375 C116.67362061 71.99656982 116.84724121 72.61813965 117.02612305 73.25854492 C121.53806309 93.41001748 115.42411997 115.03258634 104.95898438 132.16796875 C100.6092389 138.74790501 95.21633696 144.4990915 89.77148438 150.17773438 C88.93327148 151.08749023 88.93327148 151.08749023 88.078125 152.015625 C87.5615332 152.56250977 87.04494141 153.10939453 86.51269531 153.67285156 C85.29508629 155.33897708 85.29508629 155.33897708 85.69067383 157.40917969 C87.02234404 160.64375239 89.53492924 162.90238345 91.9375 165.375 C93.03831585 166.54382626 94.13724291 167.714434 95.234375 168.88671875 C95.78544922 169.47372559 96.33652344 170.06073242 96.90429688 170.66552734 C116.15444988 191.28816678 124.60494388 213.24873407 123.67041016 241.48730469 C122.30137967 264.68629118 111.35558513 284.51965812 94.7578125 300.39453125 C83.78318984 310.02106012 70.32360622 316.88452919 56.5 321.375 C55.81421875 321.63796875 55.1284375 321.9009375 54.421875 322.171875 C49.42766777 324.03993725 44.35782287 325.0615858 39.125 326 C38.44163574 326.12318604 37.75827148 326.24637207 37.05419922 326.37329102 C25.62327285 328.31695147 14.19268394 328.61449796 2.625 328.625 C1.85265015 328.62600708 1.08030029 328.62701416 0.2845459 328.62805176 C-12.18779195 328.61708338 -24.26082518 327.95536285 -36.5 325.375 C-37.16757324 325.24109863 -37.83514648 325.10719727 -38.52294922 324.96923828 C-65.31095843 319.41225875 -90.39314624 303.47881175 -105.46484375 280.58984375 C-111.31918869 271.34200135 -114.46835699 261.81023436 -117.5 251.375 C-118.03560547 249.55548828 -118.03560547 249.55548828 -118.58203125 247.69921875 C-124.04300721 227.92351431 -121.64505467 205.24037934 -111.84765625 187.31640625 C-104.50058721 174.60569746 -94.01100039 164.4698288 -83.5 154.375 C-86.10224148 149.47987442 -88.76445085 145.7921588 -92.6875 141.8125 C-106.96510335 126.79179754 -113.90795968 110.12037145 -113.75 89.375 C-113.75773437 88.35921875 -113.76546875 87.3434375 -113.7734375 86.296875 C-113.71909479 65.10321976 -105.38964739 46.31370719 -90.5 31.375 C-89.99146484 30.83149902 -89.48292969 30.28799805 -88.95898438 29.72802734 C-84.74513403 25.31357466 -80.35599636 21.99889981 -75.125 18.875 C-73.95142944 18.17008423 -73.95142944 18.17008423 -72.75415039 17.45092773 C-59.71683775 9.81297234 -46.31326609 5.19842471 -31.5 2.375 C-30.26467529 2.11009766 -30.26467529 2.11009766 -29.00439453 1.83984375 C-19.37606587 -0.04246173 -9.77246383 -0.02336911 0 0 Z " fill="#013DA8" transform="translate(462.5,438.625)"/>
<path d="M0 0 C5.39032149 12.63423179 8.17228467 25.27134237 9 39 C9.36351562 37.82824219 9.72703125 36.65648437 10.1015625 35.44921875 C17.46679688 12.22040264 17.46679688 12.22040264 26 5 C27.2684375 3.88625 27.2684375 3.88625 28.5625 2.75 C33.42928633 -0.744103 39.19677796 -0.61959213 45 0 C50.8483783 1.77377158 54.57730131 4.91484766 58 10 C61.34655765 16.81263522 61.66763916 23.48176858 62 31 C62.35191406 30.50371094 62.70382812 30.00742187 63.06640625 29.49609375 C74.12151285 14.28449798 90.25216823 4.00039119 109 1 C122.37357043 -0.13534996 135.45187929 -0.38567042 146.4375 8.1875 C151.62579663 13.19468566 154.13882728 18.73661885 154.5 25.9375 C154.19805856 32.61144697 152.26585741 38.78940741 147.4375 43.5 C146.2309375 44.2425 146.2309375 44.2425 145 45 C144.01 45.66 143.02 46.32 142 47 C132.37769739 47.94144511 124.96178628 47.21056759 116.8125 41.9375 C111.76308848 37.39854812 109.09064691 30.56733625 108 24 C105.0513105 24.31877724 103.45063337 24.53112671 101.359375 26.70703125 C99.71779681 29.47601514 99.56694293 31.23414509 99.5625 34.4375 C99.54316406 35.36433594 99.52382813 36.29117188 99.50390625 37.24609375 C100.15113273 40.83896515 101.43646767 42.42774818 104 45 C106.41590027 46.448603 106.41590027 46.448603 109.1875 47.4375 C110.77304687 48.05818359 110.77304687 48.05818359 112.390625 48.69140625 C114.95753405 49.62204968 117.52409189 50.52635364 120.109375 51.40234375 C135.64477676 56.67085595 149.138645 61.83128947 156.875 77.1875 C163.11001753 89.84072022 163.20167387 106.33741579 158.9375 119.75 C153.95117577 134.11017829 145.87629903 142.66602963 132.52734375 149.453125 C115.51023956 156.91577534 89.4091477 157.13783149 71.86328125 151.26171875 C63.58830927 147.61531227 57.85191247 143.18876551 54.03515625 134.90625 C51.55518163 128.41488787 50.62064288 121.94507489 52.94921875 115.28515625 C55.93116365 108.87914843 59.41072876 104.79866897 66 102 C74.16505246 101.03719902 79.84103179 102.29183466 86.6875 106.75 C93.81003096 113.68003013 95.71174294 123.68352484 98 133 C98.33 133.66 98.66 134.32 99 135 C106.51419167 135.44418867 111.86103208 135.63833132 118 131 C119.12887908 128.74224185 119.26390612 127.26243075 119.375 124.75 C119.44847656 123.62851562 119.44847656 123.62851562 119.5234375 122.484375 C118.60699192 118.13467805 115.83145528 115.24895218 112.25292969 112.80859375 C110.261717 111.67310036 108.24387108 110.63758743 106.1875 109.625 C105.44701416 109.24561279 104.70652832 108.86622559 103.94360352 108.4753418 C100.18647279 106.55913742 96.40020671 104.70388376 92.609375 102.85546875 C78.64265883 96.03192399 78.64265883 96.03192399 73 91 C72.40058594 90.48050781 71.80117188 89.96101562 71.18359375 89.42578125 C59.0826118 78.21342433 56.61047384 64.7881165 56 49 C55.2575 49.78375 54.515 50.5675 53.75 51.375 C49.35784021 55.56751616 46.42440202 56.3826694 40.50390625 56.265625 C36.93890306 55.88743433 33.70237728 54.85681199 30.30859375 53.734375 C27.57014296 52.86326037 24.84630762 52.37451416 22 52 C17.7399966 58.20692319 16.8305133 64.18727284 15.8125 71.5625 C15.64814453 72.67302734 15.48378906 73.78355469 15.31445312 74.92773438 C15.00875215 76.99585719 14.70894834 79.06486746 14.41723633 81.13500977 C14.14163022 83.02748357 13.82573431 84.91457513 13.46777344 86.79321289 C12.8674926 90.90839492 12.76803118 94.96359859 12.68359375 99.1171875 C12.6524221 100.4029216 12.6524221 100.4029216 12.62062073 101.71463013 C12.55558739 104.43467714 12.49645659 107.15481517 12.4375 109.875 C12.39427076 111.72657166 12.3506551 113.57813434 12.30664062 115.4296875 C12.19995379 119.95303331 12.09855806 124.47647007 12 129 C16.62 129.33 21.24 129.66 26 130 C26 136.93 26 143.86 26 151 C0.59 151 -24.82 151 -51 151 C-51 131 -51 131 -50 130 C-47.98405418 129.76572222 -45.961526 129.58663876 -43.9375 129.4375 C-42.83277344 129.35371094 -41.72804688 129.26992188 -40.58984375 129.18359375 C-39.73519531 129.12300781 -38.88054688 129.06242188 -38 129 C-38.03811074 118.44648298 -38.09755087 107.89331923 -38.18390274 97.34008026 C-38.22334021 92.43927205 -38.25554699 87.53864251 -38.27099609 82.63769531 C-38.28618724 77.90420753 -38.32067639 73.17121108 -38.36830902 68.4379425 C-38.38309749 66.63597393 -38.39103956 64.83393519 -38.39188385 63.03190613 C-38.39426295 60.49925924 -38.42141674 57.9679599 -38.45410156 55.43554688 C-38.4490712 54.69754852 -38.44404083 53.95955017 -38.43885803 53.19918823 C-38.54633058 47.78448556 -39.96609963 43.51513455 -43 39 C-47.25385222 35.39347311 -49.27885366 34.95352439 -55 34 C-55 27.73 -55 21.46 -55 15 C-53.1025 14.46375 -51.205 13.9275 -49.25 13.375 C-43.19441039 11.65058482 -37.15650515 9.86923335 -31.125 8.0625 C-30.27897217 7.80952148 -29.43294434 7.55654297 -28.5612793 7.29589844 C-24.47523064 6.06793842 -20.39951177 4.81663925 -16.33984375 3.50390625 C-15.61587402 3.2711499 -14.8919043 3.03839355 -14.14599609 2.79858398 C-12.19032452 2.16632504 -10.23762733 1.52488675 -8.28515625 0.8828125 C-5.32723242 0.08793642 -3.03532174 -0.19582721 0 0 Z " fill="#033DA8" transform="translate(770,595)"/>
<path d="M0 0 C1.6705133 0.13485507 3.34108158 0.26903199 5.01171875 0.40234375 C27.98772131 2.37955763 50.64116977 7.53858081 73 13 C73.95455078 13.22719727 74.90910156 13.45439453 75.89257812 13.68847656 C78.53643234 14.31924853 81.17499001 14.96826853 83.8125 15.625 C84.57699463 15.80675781 85.34148926 15.98851563 86.12915039 16.17578125 C94.42320276 18.31007829 98.77328845 23.63158192 104 30 C104.71542969 30.86625 105.43085937 31.7325 106.16796875 32.625 C119.1246804 49.03832148 128.02540077 68.82330975 126 90 C125.37865059 93.85542216 124.36430629 97.3446888 123 101 C122.58621094 102.12148437 122.17242188 103.24296875 121.74609375 104.3984375 C116.77056486 116.89826756 109.12506535 126.26237239 100 136 C97.0032645 135.40408849 95.05094306 134.53044678 92.62109375 132.69140625 C91.96085205 132.2005957 91.30061035 131.70978516 90.62036133 131.20410156 C89.90001709 130.66237305 89.17967285 130.12064453 88.4375 129.5625 C71.62370665 117.17728465 54.15716835 105.32942995 36 95 C34.68394775 94.24372314 34.68394775 94.24372314 33.34130859 93.47216797 C13.7928647 82.25870759 -6.06099692 71.41526917 -27 63 C-27.85980469 62.64808594 -28.71960938 62.29617187 -29.60546875 61.93359375 C-32.06343257 60.93712193 -34.53016851 59.96667998 -37 59 C-37.94601074 58.62883057 -38.89202148 58.25766113 -39.86669922 57.87524414 C-64.5688231 48.27186416 -89.43615988 41.11940356 -115.50073242 36.453125 C-117.19301054 36.1463097 -118.88328325 35.82825747 -120.5715332 35.5 C-152.33144552 29.41454647 -185.64860506 28.98380663 -217.58520508 33.72460938 C-220.07779937 34.00887248 -222.49349347 34.04697079 -225 34 C-222.16631804 31.70400777 -219.5422903 30.26333576 -216.1328125 28.984375 C-215.17576416 28.6236792 -214.21871582 28.2629834 -213.23266602 27.89135742 C-211.69437134 27.3263855 -211.69437134 27.3263855 -210.125 26.75 C-208.52773071 26.15892456 -208.52773071 26.15892456 -206.89819336 25.5559082 C-192.04418842 20.1181931 -177.12311981 15.23794037 -161.66796875 11.83203125 C-158.60492315 11.13721899 -155.63214324 10.33549836 -152.625 9.4375 C-147.00056292 7.85616131 -141.28822404 7.01037278 -135.51416016 6.17749023 C-130.67381076 5.46890621 -125.91759662 4.56514031 -121.1328125 3.54296875 C-111.85745876 1.66818788 -102.54158143 0.68301158 -93.125 -0.1875 C-92.20080261 -0.27404846 -91.27660522 -0.36059692 -90.32440186 -0.44976807 C-60.19699831 -3.20792424 -30.11130866 -2.73468453 0 0 Z " fill="#FCFDFD" transform="translate(558,34)"/>
<path d="M0 0 C3.35865213 1.36497565 5.51343142 4.15734037 7.89648438 6.79614258 C8.46278564 7.41481201 9.02908691 8.03348145 9.61254883 8.67089844 C15.66674255 15.39880197 21.08678675 22.5823851 26.48486328 29.83862305 C27.78723658 31.5680747 29.11537138 33.26826996 30.47070312 34.95629883 C65.25460818 78.59428881 88.84435073 131.08900421 105.95898438 183.79614258 C106.30171387 184.8309375 106.64444336 185.86573242 106.99755859 186.93188477 C107.28260254 187.82294922 107.56764648 188.71401367 107.86132812 189.63208008 C108.10230225 190.3776416 108.34327637 191.12320313 108.59155273 191.89135742 C108.95898438 193.79614258 108.95898438 193.79614258 107.95898438 196.79614258 C107.62801758 196.34924072 107.29705078 195.90233887 106.95605469 195.44189453 C89.99987171 172.64790664 72.12646494 154.6296863 45.95898438 142.79614258 C45.21583984 142.43133789 44.47269531 142.0665332 43.70703125 141.69067383 C36.70989943 138.50038899 30.44902835 138.25464564 22.83398438 138.42114258 C21.70605469 138.42243164 20.578125 138.4237207 19.41601562 138.42504883 C13.24366467 138.49002094 7.86239277 138.99719415 1.95898438 140.79614258 C0.98574219 141.06813477 0.0125 141.34012695 -0.99023438 141.62036133 C-10.86023193 144.73201534 -20.08118003 149.11163976 -28.04101562 155.79614258 C-31.94040208 154.30294208 -33.31487455 152.23690998 -35.47851562 148.73364258 C-43.54019947 136.23653416 -52.91544272 124.66234183 -62.63769531 113.42602539 C-64.14010367 111.68105702 -65.62671503 109.92345758 -67.11132812 108.16333008 C-71.96332693 102.42604631 -76.83050684 96.83428623 -82.23242188 91.60083008 C-84.79681536 89.04197524 -87.13661676 86.30686254 -89.49804688 83.56176758 C-91.25897906 81.54672619 -93.11074893 79.6491986 -95.04101562 77.79614258 C-93.45750748 73.43890776 -90.06162556 70.97322709 -86.60351562 68.10864258 C-85.97388916 67.57827393 -85.3442627 67.04790527 -84.69555664 66.50146484 C-80.10684811 62.64722859 -75.47030167 58.85105474 -70.81835938 55.07348633 C-67.69705195 52.51410204 -64.61651533 49.91020467 -61.54101562 47.29614258 C-56.68929566 43.17321258 -51.78603337 39.12143961 -46.84570312 35.10473633 C-44.30871533 33.0164915 -41.80427205 30.89685033 -39.30737305 28.76123047 C-32.97504106 23.35006771 -26.50156305 18.1848276 -19.84765625 13.1730957 C-17.81718897 11.62555037 -15.81226744 10.04760666 -13.80664062 8.46801758 C-12.36418334 7.34790254 -10.92147839 6.22810637 -9.47851562 5.10864258 C-8.45987427 4.29568726 -8.45987427 4.29568726 -7.4206543 3.46630859 C-6.77845947 2.97316162 -6.13626465 2.48001465 -5.47460938 1.97192383 C-4.62467407 1.30543823 -4.62467407 1.30543823 -3.75756836 0.62548828 C-2.04101562 -0.20385742 -2.04101562 -0.20385742 0 0 Z " fill="#FDFDFD" transform="translate(860.041015625,188.203857421875)"/>
<path d="M0 0 C4.51551199 1.40537084 8.74509613 3.18539458 12.99609375 5.23828125 C13.65804749 5.55536041 14.32000122 5.87243958 15.00201416 6.1991272 C17.14986515 7.23145269 19.29413006 8.27090489 21.4375 9.3125 C22.17142975 9.66837189 22.9053595 10.02424377 23.66152954 10.39089966 C41.75183685 19.18427579 59.2658883 28.81535684 76 40 C76.99644531 40.65226562 77.99289062 41.30453125 79.01953125 41.9765625 C105.85901186 59.63504122 130.6347036 79.98406722 154 102 C152.46078927 106.21821674 149.34381024 108.34158512 145.875 110.9375 C144.60050794 111.91398974 143.32711296 112.89191263 142.0546875 113.87109375 C141.38920898 114.38140137 140.72373047 114.89170898 140.03808594 115.41748047 C136.64413011 118.05279691 133.32443099 120.77787959 130 123.5 C125.00393577 127.58212075 119.96916603 131.60363805 114.875 135.5625 C108.30658425 140.68108421 101.99907806 146.07457676 95.70703125 151.52685547 C92.96694442 153.89151278 90.20296681 156.22762489 87.4375 158.5625 C86.90866211 159.00948242 86.37982422 159.45646484 85.83496094 159.91699219 C83.65709442 161.75734919 81.47825914 163.59655465 79.29882812 165.43505859 C78.15591927 166.39926632 77.01333856 167.36386313 75.87109375 168.32885742 C74.76303904 169.26418029 73.65369636 170.19797981 72.54296875 171.13012695 C68.80102976 174.28077982 65.19277329 177.54554754 61.68359375 180.953125 C60 182 60 182 58.1340332 181.78857422 C55.46360949 180.8017914 54.14794987 179.47388574 52.171875 177.4296875 C51.45386719 176.6975 50.73585938 175.9653125 49.99609375 175.2109375 C49.25488281 174.44007813 48.51367188 173.66921875 47.75 172.875 C42.92958243 167.90902808 38.08977161 163.08987332 32.83544922 158.58154297 C30.22157725 156.3292601 27.71228438 153.97675719 25.1875 151.625 C20.57181799 147.36049532 15.81867739 143.3282201 10.921875 139.38671875 C7.52035991 136.60820843 4.19748529 133.74704664 0.875 130.875 C-4.29262708 126.41454411 -9.54024065 122.10204142 -15 118 C-14.30354773 114.49574542 -13.16888175 113.04622804 -10.578125 110.58203125 C0.88899502 99.08652727 7.55696638 85.36549128 12 70 C12.3196875 69.03964844 12.639375 68.07929688 12.96875 67.08984375 C19.35204698 46.07815785 13.32138036 24.99095547 3.50390625 6.125 C2.36650553 4.06285705 1.20840958 2.02114522 0 0 Z " fill="#FDFDFD" transform="translate(690,67)"/>
<path d="M0 0 C13.93819681 9.78457134 23.85964371 22.84360579 28.515625 39.34375 C29.69094204 46.15456156 29.42172635 52.99259723 29.125 59.875 C16.53112626 63.59312812 3.92719935 67.25183389 -8.75415039 70.66113281 C-13.43122651 71.92215706 -18.09357202 73.21945296 -22.7421875 74.58203125 C-23.69714111 74.86103271 -24.65209473 75.14003418 -25.63598633 75.42749023 C-27.45523156 75.96161112 -29.27288981 76.50117854 -31.08862305 77.04711914 C-35.10741205 78.22515612 -38.63630438 79.23905975 -42.875 78.875 C-41.14371224 89.78666891 -37.97705914 98.12043324 -29.875 105.875 C-23.32433939 110.5540433 -16.81192845 112.10811096 -8.875 110.875 C1.73325121 107.3113828 7.8314487 102.08223246 14.125 92.875 C19.45475854 97.11705271 24.89854641 101.77233285 28.125 107.875 C27.83931154 113.79151577 23.82155189 117.58037051 20.125 121.875 C19.53589844 122.56078125 18.94679688 123.2465625 18.33984375 123.953125 C7.60950888 135.52639488 -8.90462978 143.86994052 -24.72949219 145.09619141 C-48.82997251 146.00703298 -48.82997251 146.00703298 -59.875 140.875 C-60.81988281 140.43929687 -61.76476562 140.00359375 -62.73828125 139.5546875 C-78.38813145 131.63235669 -90.67760815 118.38207175 -96.875 101.875 C-99.67003946 93.08153193 -100.42279253 84.7589785 -100.375 75.5625 C-100.36855469 74.25522949 -100.36210938 72.94795898 -100.35546875 71.60107422 C-100.01674413 47.85778131 -93.50135126 25.0853435 -76.72265625 7.63671875 C-55.00982427 -12.62604712 -25.36322748 -14.74690512 0 0 Z " fill="#033DA8" transform="translate(690.875,605.125)"/>
<path d="M0 0 C2.62951038 0.81896201 5.07590775 1.81848893 7.58984375 2.94140625 C9.76007638 3.89462026 11.85330023 4.59047426 14.125 5.25 C27.26595804 9.59141775 40.82433663 16.41003967 48.125 28.625 C51.9087673 37.23910854 51.15947344 48.04097437 48.03515625 56.7890625 C43.9295856 65.55794169 37.66942317 70.26394173 28.8125 73.75 C16.90591623 78.06143665 3.47457618 77.04344181 -8 72 C-17.4608523 66.87813606 -24.66964972 59.12996702 -28.33984375 48.9296875 C-31.46992156 35.03880963 -27.95831709 23.04358253 -20.51171875 11.2265625 C-14.82228202 2.84677196 -10.45669195 -1.38419519 0 0 Z " fill="#FCFCFC" transform="translate(437,631)"/>
<path d="M0 0 C1.27331719 0.43970666 2.54290083 0.89036835 3.80859375 1.3515625 C4.75895508 1.68414063 4.75895508 1.68414063 5.72851562 2.0234375 C7.5699149 2.66821171 9.40806307 3.32224737 11.24609375 3.9765625 C12.71755859 4.43869141 12.71755859 4.43869141 14.21875 4.91015625 C27.24282875 9.49799302 40.22074972 16.60619655 47.35791016 28.89013672 C50.43367303 36.11538947 49.3153997 48.44636292 46.68359375 55.6640625 C42.32665466 64.31763702 37.13890953 68.60853567 28.11328125 72.06640625 C15.59338924 76.04070439 0.44631061 75.34530453 -11.39453125 69.72265625 C-20.90342973 64.49845604 -26.78800651 57.02241598 -30.75390625 46.9765625 C-33.98091355 33.9857895 -30.25623518 24.04135187 -23.94140625 12.7265625 C-17.89481097 3.00489372 -11.86811502 -3.23563594 0 0 Z " fill="#FDFCFC" transform="translate(182.75390625,631.0234375)"/>
<path d="M0 0 C0.76441406 -0.00773437 1.52882812 -0.01546875 2.31640625 -0.0234375 C13.92424096 0.0159779 24.76585784 4.08988504 33.125 12.25 C38.83471275 19.81151148 38.96531415 26.94925015 38.125 36.25 C35.57085217 46.09227655 30.81762398 56.45491735 22.125 62.25 C17.19863708 64.71318146 11.78025204 63.09238151 6.8203125 61.47338867 C6.07523438 61.21404541 5.33015625 60.95470215 4.5625 60.6875 C3.38494141 60.28204956 3.38494141 60.28204956 2.18359375 59.8684082 C-10.43294599 55.39706351 -22.36216789 49.92404097 -30.6171875 38.9296875 C-33.40688137 32.98642665 -32.81437231 24.70881701 -31.11328125 18.4453125 C-30.17697233 16.24702198 -29.14257052 14.27281288 -27.875 12.25 C-27.318125 11.3425 -26.76125 10.435 -26.1875 9.5 C-18.89971461 2.40918179 -9.90914843 -0.09925691 0 0 Z " fill="#FCFBFB" transform="translate(217.875,495.75)"/>
<path d="M0 0 C5.82477112 4.87655257 10.92281025 10.06254374 11.8984375 17.87890625 C12.07336059 30.7357533 7.47281593 43.70232498 -1.4375 53.1875 C-6.37863015 56.12938881 -11.38592892 55.85215062 -16.89453125 54.65234375 C-31.47828913 50.4494655 -49.53046754 44.41657077 -57.55859375 30.5859375 C-60.1065505 23.63284664 -59.23009444 15.06882034 -56.53515625 8.25 C-52.62881885 0.90997813 -47.33079701 -3.34410147 -39.4375 -5.8125 C-26.62403771 -9.07090622 -10.92183879 -7.68650164 0 0 Z " fill="#FBFCFC" transform="translate(499.4375,503.8125)"/>
<path d="M0 0 C5.27442632 2.75708649 7.14078012 7.595503 9 13 C10.79257485 20.0634572 11.81351062 30.40470967 8.5625 37.1875 C3.43663817 42.81344591 -3.72991424 44.52133849 -11 46 C-12.32 46 -13.64 46 -15 46 C-15.07466101 41.30439657 -15.12884101 36.60914557 -15.16479492 31.91308594 C-15.17979745 30.31862359 -15.20020621 28.72420192 -15.22631836 27.12988281 C-15.26308134 24.82606923 -15.27981155 22.5228054 -15.29296875 20.21875 C-15.30845261 19.51633179 -15.32393646 18.81391357 -15.33988953 18.09020996 C-15.34195435 11.89279783 -13.82610618 6.70534249 -10.3125 1.5 C-6.94364803 -0.68520128 -3.83391078 -0.72698907 0 0 Z " fill="#F8FAFC" transform="translate(660,616)"/>
<path d="M0 0 C3.97097416 3.36172881 4.06494135 7.0369964 5 12 C9.62 12 14.24 12 19 12 C17.89904638 15.30286086 17.3103981 15.78510901 14.5625 17.6875 C13.94503906 18.12449219 13.32757813 18.56148438 12.69140625 19.01171875 C11 20 11 20 9 20 C9.99 24.95 10.98 29.9 12 35 C9.75390625 33.47005208 7.5078125 31.94010417 5.26171875 30.41015625 C2.9741857 28.86162674 2.9741857 28.86162674 0 28 C-2.29105272 29.43512912 -2.29105272 29.43512912 -4.5625 31.4375 C-8.80821918 35 -8.80821918 35 -11 35 C-10.7834375 34.24074219 -10.566875 33.48148437 -10.34375 32.69921875 C-10.0653125 31.70535156 -9.786875 30.71148437 -9.5 29.6875 C-9.2215625 28.70136719 -8.943125 27.71523438 -8.65625 26.69921875 C-7.88187804 23.97712797 -7.88187804 23.97712797 -8 21 C-9.99834111 19.15667058 -9.99834111 19.15667058 -12.5 17.4375 C-14.03357952 16.3370147 -15.54284143 15.19984287 -17 14 C-17 13.34 -17 12.68 -17 12 C-10.565 11.505 -10.565 11.505 -4 11 C-3.2884375 8.5559375 -3.2884375 8.5559375 -2.5625 6.0625 C-1.125 1.125 -1.125 1.125 0 0 Z " fill="#194BA7" transform="translate(353,278)"/>
<path d="M0 0 C0.66 0 1.32 0 2 0 C2.50757862 1.41396902 3.00574925 2.83131729 3.5 4.25 C3.7784375 5.03890625 4.056875 5.8278125 4.34375 6.640625 C5 9 5 9 5 13 C9.62 13 14.24 13 19 13 C19 13.66 19 14.32 19 15 C17.03125 16.5078125 17.03125 16.5078125 14.5 18.125 C13.6646875 18.66382813 12.829375 19.20265625 11.96875 19.7578125 C11.3190625 20.16773438 10.669375 20.57765625 10 21 C10.52537724 26.0302076 11.10594786 31.01885239 12 36 C6.23448276 32.2 6.23448276 32.2 3.875 30.1875 C2.10589572 28.83279622 2.10589572 28.83279622 0.125 29 C-1.97863789 29.98994724 -3.36485269 31.06295703 -5.125 32.5625 C-8 35 -8 35 -10 35 C-9.47973634 30.61492059 -8.90136124 26.32501905 -8 22 C-8.6496875 21.51789063 -9.299375 21.03578125 -9.96875 20.5390625 C-11.22171875 19.59160156 -11.22171875 19.59160156 -12.5 18.625 C-13.75296875 17.68527344 -13.75296875 17.68527344 -15.03125 16.7265625 C-15.6809375 16.15679687 -16.330625 15.58703125 -17 15 C-17 14.34 -17 13.68 -17 13 C-12.38 13 -7.76 13 -3 13 C-2.87625 11.783125 -2.7525 10.56625 -2.625 9.3125 C-2.21108694 5.93520941 -1.45426549 3.10243305 0 0 Z " fill="#1648A5" transform="translate(302,189)"/>
<path d="M0 0 C3.43473331 3.43473331 3.23724514 8.31450583 4 13 C8.95 13 13.9 13 19 13 C19 13.66 19 14.32 19 15 C17.1015625 16.5078125 17.1015625 16.5078125 14.625 18.125 C13.81289062 18.66382813 13.00078125 19.20265625 12.1640625 19.7578125 C10 21 10 21 8 21 C8.2165625 21.59167969 8.433125 22.18335938 8.65625 22.79296875 C11.42179262 30.64147627 11.42179262 30.64147627 11 35 C8.41496565 33.85109585 6.65507437 32.69819007 4.5 30.8125 C2.25405801 28.75248587 2.25405801 28.75248587 0.109375 29.2265625 C-2.24190221 30.08869748 -4.15142758 31.19842793 -6.25 32.5625 C-6.95640625 33.01753906 -7.6628125 33.47257812 -8.390625 33.94140625 C-8.92171875 34.29074219 -9.4528125 34.64007813 -10 35 C-9.82339844 34.14277344 -9.64679688 33.28554688 -9.46484375 32.40234375 C-8.91088101 28.76260338 -8.58981767 25.66600459 -9 22 C-11.11518766 19.43277627 -13.15778959 17.98118032 -15.99609375 16.26953125 C-16.65738281 15.85058594 -17.31867188 15.43164062 -18 15 C-18 14.34 -18 13.68 -18 13 C-13.38 13 -8.76 13 -4 13 C-3.2884375 10.0609375 -3.2884375 10.0609375 -2.5625 7.0625 C-1.125 1.125 -1.125 1.125 0 0 Z " fill="#1649A8" transform="translate(166,224)"/>
<path d="M0 0 C3.97097416 3.36172881 4.06494135 7.0369964 5 12 C9.62 12 14.24 12 19 12 C13.35475578 17.80205656 13.35475578 17.80205656 10 20 C9.34 20 8.68 20 8 20 C8.99 24.62 9.98 29.24 11 34 C7 32 7 32 4.5 29.8125 C2.25955953 27.76333627 2.25955953 27.76333627 0.140625 28.1953125 C-2.4434367 29.16669336 -4.48032211 30.49375205 -6.75 32.0625 C-7.54921875 32.61035156 -8.3484375 33.15820312 -9.171875 33.72265625 C-10.07679688 34.35494141 -10.07679688 34.35494141 -11 35 C-10 30 -9 25 -8 20 C-9.0828125 19.690625 -9.0828125 19.690625 -10.1875 19.375 C-13.9255306 17.54751837 -15.49246917 15.29561194 -18 12 C-13.38 12 -8.76 12 -4 12 C-3.71125 10.576875 -3.4225 9.15375 -3.125 7.6875 C-2.4619099 4.41941308 -1.90318884 2.85478326 0 0 Z " fill="#1145A7" transform="translate(202,190)"/>
<path d="M0 0 C2 1 2 1 2.8515625 2.9609375 C3.10679687 3.75757813 3.36203125 4.55421875 3.625 5.375 C4.01558594 6.56222656 4.01558594 6.56222656 4.4140625 7.7734375 C5 10 5 10 5 13 C9.62 13 14.24 13 19 13 C13.35475578 18.80205656 13.35475578 18.80205656 10 21 C9.34 21 8.68 21 8 21 C8.30035156 21.83144531 8.60070312 22.66289062 8.91015625 23.51953125 C9.29042969 24.60621094 9.67070312 25.69289063 10.0625 26.8125 C10.44535156 27.89144531 10.82820313 28.97039062 11.22265625 30.08203125 C12 33 12 33 11 36 C10.39671875 35.48308594 9.7934375 34.96617187 9.171875 34.43359375 C8.37265625 33.77488281 7.5734375 33.11617188 6.75 32.4375 C5.96109375 31.77621094 5.1721875 31.11492187 4.359375 30.43359375 C2.17444119 28.80517394 2.17444119 28.80517394 0 29.09375 C-2.43942935 30.19911643 -4.54671515 31.53964135 -6.75 33.0625 C-7.54921875 33.61035156 -8.3484375 34.15820312 -9.171875 34.72265625 C-10.07679688 35.35494141 -10.07679688 35.35494141 -11 36 C-10.86722656 35.40832031 -10.73445312 34.81664062 -10.59765625 34.20703125 C-10.42105469 33.41683594 -10.24445313 32.62664062 -10.0625 31.8125 C-9.88847656 31.03519531 -9.71445313 30.25789063 -9.53515625 29.45703125 C-8.99488667 26.97652348 -8.49105628 24.49067284 -8 22 C-8.721875 21.43410156 -9.44375 20.86820312 -10.1875 20.28515625 C-11.115625 19.55167969 -12.04375 18.81820313 -13 18.0625 C-13.928125 17.33160156 -14.85625 16.60070312 -15.8125 15.84765625 C-16.534375 15.23792969 -17.25625 14.62820313 -18 14 C-18 13.67 -18 13.34 -18 13 C-13.38 13 -8.76 13 -4 13 C-3.525625 11.22625 -3.05125 9.4525 -2.5625 7.625 C-1.125 2.25 -1.125 2.25 0 0 Z " fill="#1448A7" transform="translate(149,271)"/>
<path d="M0 0 C3.33773709 3.64116773 3.97864902 7.28607242 5 12 C9.29 12.33 13.58 12.66 18 13 C16.89904638 16.30286086 16.3103981 16.78510901 13.5625 18.6875 C12.94503906 19.12449219 12.32757813 19.56148438 11.69140625 20.01171875 C10 21 10 21 8 21 C8.30035156 21.91523438 8.60070312 22.83046875 8.91015625 23.7734375 C9.29042969 24.96195312 9.67070312 26.15046875 10.0625 27.375 C10.44535156 28.55835938 10.82820313 29.74171875 11.22265625 30.9609375 C12 34 12 34 11 36 C10.39671875 35.48308594 9.7934375 34.96617187 9.171875 34.43359375 C8.37265625 33.77488281 7.5734375 33.11617188 6.75 32.4375 C5.96109375 31.77621094 5.1721875 31.11492187 4.359375 30.43359375 C2.16387033 28.7927665 2.16387033 28.7927665 -0.0703125 29.125 C-2.15544781 30.07048645 -3.81456153 31.16279977 -5.625 32.5625 C-8.78753541 35 -8.78753541 35 -11 35 C-10.00956295 30.16371695 -9.04301154 25.52381127 -7 21 C-7.70125 20.7525 -8.4025 20.505 -9.125 20.25 C-12.39514548 18.82819762 -15.141122 17.12753712 -18 15 C-18 14.34 -18 13.68 -18 13 C-13.38 12.67 -8.76 12.34 -4 12 C-3.525625 10.205625 -3.05125 8.41125 -2.5625 6.5625 C-1.125 1.125 -1.125 1.125 0 0 Z " fill="#1548A6" transform="translate(225,391)"/>
<path d="M0 0 C0.66 0 1.32 0 2 0 C4.00691802 4.93367347 5 7.55520605 5 13 C9.62 13 14.24 13 19 13 C14.34195933 17.78743068 14.34195933 17.78743068 11.6875 19.4375 C9.70366409 20.94135389 9.70366409 20.94135389 9.625 23.8125 C9.89627493 27.04868728 9.89627493 27.04868728 11.0625 30.1875 C12 33 12 33 11 36 C10.48050781 35.48308594 9.96101563 34.96617187 9.42578125 34.43359375 C8.72839844 33.77488281 8.03101563 33.11617188 7.3125 32.4375 C6.62800781 31.77621094 5.94351562 31.11492187 5.23828125 30.43359375 C3.08131807 28.74716031 3.08131807 28.74716031 0.4296875 29.125 C-1.99018794 29.9964664 -3.33244845 30.81686168 -5.1875 32.5625 C-8 35 -8 35 -10 35 C-9.33333333 30.33333333 -8.66666667 25.66666667 -8 21 C-8.6496875 20.50628906 -9.299375 20.01257813 -9.96875 19.50390625 C-10.8040625 18.86324219 -11.639375 18.22257812 -12.5 17.5625 C-13.3353125 16.92441406 -14.170625 16.28632813 -15.03125 15.62890625 C-16.00578125 14.82259766 -16.00578125 14.82259766 -17 14 C-17 13.67 -17 13.34 -17 13 C-12.38 13 -7.76 13 -3 13 C-2.87625 11.783125 -2.7525 10.56625 -2.625 9.3125 C-2.21108694 5.93520941 -1.45426549 3.10243305 0 0 Z " fill="#1547A5" transform="translate(319,370)"/>
<path d="M0 0 C0.66 0 1.32 0 2 0 C2.50471197 1.76949612 3.00360685 3.54065223 3.5 5.3125 C3.7784375 6.29863281 4.056875 7.28476562 4.34375 8.30078125 C5 11 5 11 5 14 C9.62 14 14.24 14 19 14 C15.82418312 17.44802976 13.39309313 19.41996314 9 21 C9.28875 21.91523438 9.5775 22.83046875 9.875 23.7734375 C10.24625 24.96195312 10.6175 26.15046875 11 27.375 C11.37125 28.55835938 11.7425 29.74171875 12.125 30.9609375 C13 34 13 34 13 36 C8.40693504 34.5140084 5.56430755 32.14985318 2 29 C-2.01409454 30.37626099 -4.72309126 32.34304697 -8 35 C-8.66 35 -9.32 35 -10 35 C-9.39174965 30.65535464 -8.73832608 26.32448133 -8 22 C-8.6496875 21.51789063 -9.299375 21.03578125 -9.96875 20.5390625 C-11.22171875 19.59160156 -11.22171875 19.59160156 -12.5 18.625 C-13.75296875 17.68527344 -13.75296875 17.68527344 -15.03125 16.7265625 C-15.6809375 16.15679687 -16.330625 15.58703125 -17 15 C-17 14.34 -17 13.68 -17 13 C-12.38 13 -7.76 13 -3 13 C-2.67 11.02 -2.34 9.04 -2 7 C-1.40346332 4.63997899 -0.6998627 2.33287568 0 0 Z " fill="#1649A7" transform="translate(181,364)"/>
<path d="M0 0 C0.66 0 1.32 0 2 0 C2.50757862 1.41396902 3.00574925 2.83131729 3.5 4.25 C3.7784375 5.03890625 4.056875 5.8278125 4.34375 6.640625 C5 9 5 9 5 13 C9.62 13 14.24 13 19 13 C14.27696793 17.85422741 14.27696793 17.85422741 11.625 19.25 C9.78381046 20.84747215 9.78381046 20.84747215 9.94140625 23.0078125 C10.18699992 25.37018968 10.55079136 27.6681988 11 30 C11.185625 31.010625 11.37125 32.02125 11.5625 33.0625 C11.7790625 34.0215625 11.7790625 34.0215625 12 35 C8.06326356 33.68775452 5.77280706 32.08089673 3 29 C-1.8274799 30.41292095 -5.7162359 32.42974154 -10 35 C-9.43393721 30.30976546 -8.81462495 25.65499974 -8 21 C-8.6496875 20.50628906 -9.299375 20.01257813 -9.96875 19.50390625 C-10.8040625 18.86324219 -11.639375 18.22257812 -12.5 17.5625 C-13.3353125 16.92441406 -14.170625 16.28632813 -15.03125 15.62890625 C-16.00578125 14.82259766 -16.00578125 14.82259766 -17 14 C-17 13.67 -17 13.34 -17 13 C-12.38 13 -7.76 13 -3 13 C-2.87625 11.96875 -2.7525 10.9375 -2.625 9.875 C-2.06110186 6.37883154 -1.21317941 3.31602373 0 0 Z " fill="#1246A6" transform="translate(276,393)"/>
<path d="M0 0 C3.10468986 2.54020079 3.98485936 5.17370067 5 9 C5 10.32 5 11.64 5 13 C9.62 13 14.24 13 19 13 C15.72724974 16.27275026 12.85411644 18.54738045 9 21 C9.90723613 25.68738665 10.9547267 30.34193744 12 35 C8.93214462 33.94816387 6.96651855 32.97070373 4.5 30.8125 C2.18546936 28.77465789 2.18546936 28.77465789 -0.4375 28.9375 C-3.92510218 30.38357895 -6.17588644 32.49680843 -9 35 C-9.33 35 -9.66 35 -10 35 C-9.43393721 30.30976546 -8.81462495 25.65499974 -8 21 C-8.6496875 20.50628906 -9.299375 20.01257813 -9.96875 19.50390625 C-10.8040625 18.86324219 -11.639375 18.22257812 -12.5 17.5625 C-13.3353125 16.92441406 -14.170625 16.28632813 -15.03125 15.62890625 C-16.00578125 14.82259766 -16.00578125 14.82259766 -17 14 C-17 13.67 -17 13.34 -17 13 C-12.38 13 -7.76 13 -3 13 C-2.87625 11.783125 -2.7525 10.56625 -2.625 9.3125 C-2.21108694 5.93520941 -1.45426549 3.10243305 0 0 Z " fill="#1546A4" transform="translate(347,329)"/>
<path d="M0 0 C0.66 0 1.32 0 2 0 C2.50471197 1.76949612 3.00360685 3.54065223 3.5 5.3125 C3.7784375 6.29863281 4.056875 7.28476563 4.34375 8.30078125 C5 11 5 11 5 14 C9.29 14 13.58 14 18 14 C18 14.66 18 15.32 18 16 C16.04109119 17.39300182 14.0360882 18.72245446 12 20 C11.01 20.66 10.02 21.32 9 22 C9.90723613 26.68738665 10.9547267 31.34193744 12 36 C8.07699728 34.17495091 5.26212728 31.81729174 2 29 C-2.47832188 30.53542464 -6.80427026 32.60854052 -9 37 C-9.66 37 -10.32 37 -11 37 C-10.86722656 36.41992188 -10.73445312 35.83984375 -10.59765625 35.2421875 C-9.60295999 30.84229018 -8.68631668 26.46105842 -8 22 C-8.5775 21.59007812 -9.155 21.18015625 -9.75 20.7578125 C-10.4925 20.21898437 -11.235 19.68015625 -12 19.125 C-12.7425 18.59132812 -13.485 18.05765625 -14.25 17.5078125 C-15.11625 16.76144531 -15.11625 16.76144531 -16 16 C-16 15.34 -16 14.68 -16 14 C-11.71 14 -7.42 14 -3 14 C-2.87625 12.989375 -2.7525 11.97875 -2.625 10.9375 C-2.01914665 7.12062388 -1.12806088 3.68499888 0 0 Z " fill="#0D40A3" transform="translate(253,177)"/>
<path d="M0 0 C4.21817196 3.47854728 4.12468186 7.81542335 5 13 C9.62 13 14.24 13 19 13 C15.88983545 16.28788824 12.98381075 18.83735988 9 21 C9.13277344 21.59167969 9.26554687 22.18335938 9.40234375 22.79296875 C10.31005178 26.85446525 11.2091113 30.91374171 12 35 C7.56541027 33.6062718 5.12621626 31.39417765 2 28 C-2.01409454 29.37626099 -4.72309126 31.34304697 -8 34 C-8.66 34 -9.32 34 -10 34 C-9.39174965 29.65535464 -8.73832608 25.32448133 -8 21 C-8.6496875 20.50628906 -9.299375 20.01257813 -9.96875 19.50390625 C-10.8040625 18.86324219 -11.639375 18.22257812 -12.5 17.5625 C-13.3353125 16.92441406 -14.170625 16.28632813 -15.03125 15.62890625 C-16.00578125 14.82259766 -16.00578125 14.82259766 -17 14 C-17 13.67 -17 13.34 -17 13 C-12.38 13 -7.76 13 -3 13 C-2.87625 11.783125 -2.7525 10.56625 -2.625 9.3125 C-2.21108694 5.93520941 -1.45426549 3.10243305 0 0 Z " fill="#1143A4" transform="translate(339,229)"/>
<path d="M0 0 C0.66 0 1.32 0 2 0 C3.32 3.96 4.64 7.92 6 12 C10.29 12.33 14.58 12.66 19 13 C16.14723863 15.93200474 13.34920216 18.64315404 10 21 C10.144375 21.66 10.28875 22.32 10.4375 23 C11.12299916 26.65599551 11.56175515 30.30622195 12 34 C9.41496565 32.85109585 7.65507437 31.69819007 5.5 29.8125 C3.24478066 27.80434414 3.24478066 27.80434414 1 28 C-1.63556905 29.31778453 -3.72269553 31.14219898 -6 33 C-6.66 33 -7.32 33 -8 33 C-8 33.66 -8 34.32 -8 35 C-8.66 35 -9.32 35 -10 35 C-9.125 29.25 -9.125 29.25 -8 27 C-7.24755499 24.1724011 -7.24755499 24.1724011 -8 21 C-9.96341622 19.1783622 -12.00137907 17.74910935 -14.25 16.296875 C-14.8275 15.86890625 -15.405 15.4409375 -16 15 C-16 14.34 -16 13.68 -16 13 C-11.71 13 -7.42 13 -3 13 C-2.690625 11.411875 -2.38125 9.82375 -2.0625 8.1875 C-1.51076205 5.35524518 -0.91407022 2.74221066 0 0 Z " fill="#1243A5" transform="translate(153,323)"/>
<path d="M0 0 C13.2 0 26.4 0 40 0 C40 0.33 40 0.66 40 1 C34.69818726 1.28687316 29.39626708 1.57164035 24.09423828 1.85449219 C22.29212419 1.95092422 20.4900403 2.04792259 18.68798828 2.14550781 C16.09154959 2.28601085 13.49500758 2.42444887 10.8984375 2.5625 C9.69808365 2.62812134 9.69808365 2.62812134 8.47348022 2.69506836 C4.30969735 2.91434545 0.17153264 3.04667449 -4 3 C-2.68 2.67 -1.36 2.34 0 2 C0 1.34 0 0.68 0 0 Z " fill="#1D4EA5" transform="translate(443,439)"/>
<path d="M0 0 C1.5625 1.25 1.5625 1.25 3 3 C3 6.29185229 1.09630786 9.25584814 -0.9921875 11.73828125 C-5.57522039 14.61828052 -11.74007224 13.98576474 -17 14 C-17.33 13.34 -17.66 12.68 -18 12 C-13.38 12 -8.76 12 -4 12 C-3.71125 10.576875 -3.4225 9.15375 -3.125 7.6875 C-2.4619099 4.41941308 -1.90318884 2.85478326 0 0 Z " fill="#3562AC" transform="translate(202,190)"/>
<path d="M0 0 C4.62 0 9.24 0 14 0 C12.02 0.99 12.02 0.99 10 2 C10.33 3.98 10.66 5.96 11 8 C7.43770549 8 6.58890321 7.23890991 3.8125 5.125 C3.09707031 4.59132812 2.38164062 4.05765625 1.64453125 3.5078125 C1.10183594 3.01023438 0.55914062 2.51265625 0 2 C0 1.34 0 0.68 0 0 Z " fill="#2B5BAD" transform="translate(285,202)"/>
<path d="M0 0 C0.66 0.33 1.32 0.66 2 1 C-3.94 6.94 -9.88 12.88 -16 19 C-16.66 18.67 -17.32 18.34 -18 18 C-12.37361021 11.50903494 -6.55902307 5.55113536 0 0 Z " fill="#D42248" transform="translate(125,461)"/>
<path d="M0 0 C1.24072266 0.00322266 2.48144531 0.00644531 3.75976562 0.00976562 C5.03658203 0.01814453 6.31339844 0.02652344 7.62890625 0.03515625 C9.58473633 0.04192383 9.58473633 0.04192383 11.58007812 0.04882812 C14.78390177 0.06056374 17.98762988 0.07698262 21.19140625 0.09765625 C21.19140625 0.42765625 21.19140625 0.75765625 21.19140625 1.09765625 C20.12442505 1.13524048 20.12442505 1.13524048 19.03588867 1.17358398 C15.81671108 1.28954064 12.5978264 1.4122687 9.37890625 1.53515625 C8.25935547 1.57447266 7.13980469 1.61378906 5.98632812 1.65429688 C4.37661133 1.71713867 4.37661133 1.71713867 2.734375 1.78125 C1.24973755 1.83623657 1.24973755 1.83623657 -0.26489258 1.89233398 C-2.93042885 2.00555956 -2.93042885 2.00555956 -5.80859375 3.09765625 C-7.8515625 2.9765625 -7.8515625 2.9765625 -9.99609375 2.66015625 C-11.25421875 2.47453125 -12.51234375 2.28890625 -13.80859375 2.09765625 C-13.80859375 1.76765625 -13.80859375 1.43765625 -13.80859375 1.09765625 C-9.1564444 0.35031264 -4.70991433 -0.02170467 0 0 Z " fill="#D84868" transform="translate(196.80859375,437.90234375)"/>
<path d="M0 0 C2.4443896 2.4443896 2.91985673 3.55383944 3 7 C0.84381063 9.56411708 -0.99099627 11.49549813 -4 13 C-3.52511102 11.01980257 -3.04497141 9.04086365 -2.5625 7.0625 C-2.29566406 5.96035156 -2.02882812 4.85820312 -1.75390625 3.72265625 C-1 1 -1 1 0 0 Z " fill="#2F61AE" transform="translate(166,224)"/>
<path d="M0 0 C0.33 0 0.66 0 1 0 C1 5.94 1 11.88 1 18 C2.98 18 4.96 18 7 18 C7 18.33 7 18.66 7 19 C5.02 19 3.04 19 1 19 C1.33 20.65 1.66 22.3 2 24 C0.10786631 21.61426621 -1.02391783 19.92824652 -2 17 C-1.34 17 -0.68 17 0 17 C0 11.39 0 5.78 0 0 Z " fill="#AFC1DC" transform="translate(714,611)"/>
<path d="M0 0 C2.89932357 2.39509338 3.50168276 4.31245243 4 8 C2.02 8.33 0.04 8.66 -2 9 C-2.33 9.99 -2.66 10.98 -3 12 C-2.49202991 7.6822542 -1.80317221 3.96697886 0 0 Z " fill="#3A66AF" transform="translate(339,229)"/>
<path d="M0 0 C0.66 0.99 1.32 1.98 2 3 C1.67 3.66 1.34 4.32 1 5 C2.32 5.33 3.64 5.66 5 6 C4.195625 6.61875 3.39125 7.2375 2.5625 7.875 C-0.03874519 9.74164041 -0.03874519 9.74164041 -1 12 C-1.66 12 -2.32 12 -3 12 C-2.68950274 10.56206608 -2.3765224 9.1246682 -2.0625 7.6875 C-1.88847656 6.88699219 -1.71445313 6.08648437 -1.53515625 5.26171875 C-1 3 -1 3 0 0 Z " fill="#3764AA" transform="translate(245,202)"/>
<path d="M0 0 C6.49850211 0.51553879 12.66226532 1.46667709 19 3 C19 3.33 19 3.66 19 4 C12.84218201 4.19548629 6.8651218 4.12086994 1 2 C0.67 1.34 0.34 0.68 0 0 Z " fill="#D01D3E" transform="translate(231,440)"/>
<path d="M0 0 C0.66 0 1.32 0 2 0 C1.26374506 5.74278856 0.21222474 12.78777526 -4 17 C-3.67373505 10.67721029 -3.38495108 5.44535609 0 0 Z " fill="#2D54A7" transform="translate(771,468)"/>
<path d="M0 0 C-5.60995843 3.73997229 -11.47300069 3.11406407 -18 3 C-18 2.67 -18 2.34 -18 2 C-15.75256955 1.46818825 -13.50192898 0.94992874 -11.25 0.4375 C-9.99703125 0.14746094 -8.7440625 -0.14257812 -7.453125 -0.44140625 C-4.40526252 -0.93444283 -2.82358172 -1.07666879 0 0 Z " fill="#D32C4E" transform="translate(181,441)"/>
<path d="M0 0 C4.29 0 8.58 0 13 0 C13 0.33 13 0.66 13 1 C11.02 1 9.04 1 7 1 C6.67 2.65 6.34 4.3 6 6 C3.96166576 4.7260411 1.96147874 3.38938077 0 2 C0 1.34 0 0.68 0 0 Z " fill="#1D4DA5" transform="translate(237,191)"/>
<path d="M0 0 C0.66 0 1.32 0 2 0 C1.42424336 3.35250701 0.40693737 4.93818629 -2.0625 7.25 C-2.88427734 8.03117187 -2.88427734 8.03117187 -3.72265625 8.828125 C-4.14417969 9.21484375 -4.56570313 9.6015625 -5 10 C-5.99 9.67 -6.98 9.34 -8 9 C-6.1875 6.5 -6.1875 6.5 -4 4 C-3.01 4 -2.02 4 -1 4 C-0.67 2.68 -0.34 1.36 0 0 Z " fill="#1B49A5" transform="translate(625,385)"/>
<path d="M0 0 C0.66 0.33 1.32 0.66 2 1 C0.41984377 2.60729631 -1.16425652 4.21071576 -2.75 5.8125 C-3.63171875 6.70582031 -4.5134375 7.59914063 -5.421875 8.51953125 C-7.53448851 10.55212152 -9.60794665 12.31773818 -12 14 C-12.66 13.67 -13.32 13.34 -14 13 C-9.38 8.71 -4.76 4.42 0 0 Z " fill="#E1E3E7" transform="translate(701,320)"/>
<path d="M0 0 C2.12508244 3.18762365 2.5020163 5.26512223 3 9 C-3.42857143 4.85714286 -3.42857143 4.85714286 -6 2 C-3.525 2.495 -3.525 2.495 -1 3 C-0.67 2.01 -0.34 1.02 0 0 Z " fill="#3964AB" transform="translate(311,216)"/>
<path d="M0 0 C7.26 0 14.52 0 22 0 C21.34 1.32 20.68 2.64 20 4 C19.67 3.01 19.34 2.02 19 1 C12.73 1 6.46 1 0 1 C0 0.67 0 0.34 0 0 Z " fill="#3C64A9" transform="translate(196,779)"/>
<path d="M0 0 C1.32 0.33 2.64 0.66 4 1 C3.01 1.33 2.02 1.66 1 2 C-3.25886018 5.8830784 -3.57023826 9.51393662 -3.921875 14.98828125 C-3.96054687 15.98408203 -3.96054687 15.98408203 -4 17 C-4.33 17 -4.66 17 -5 17 C-5.76681614 7.42331839 -5.76681614 7.42331839 -3.88671875 3.93359375 C-2.5 2.3125 -2.5 2.3125 0 0 Z " fill="#CAD4E3" transform="translate(874,618)"/>
<path d="M0 0 C0.33 0 0.66 0 1 0 C0.36934845 5.7809725 -0.65155132 11.3443706 -2 17 C-2.33 17 -2.66 17 -3 17 C-2.88597936 14.72858891 -2.75841495 12.45785448 -2.625 10.1875 C-2.55539062 8.92292969 -2.48578125 7.65835938 -2.4140625 6.35546875 C-2 3 -2 3 0 0 Z " fill="#2150A5" transform="translate(578,537)"/>
<path d="M0 0 C2.12508244 3.18762365 2.5020163 5.26512223 3 9 C-0.36591866 7.55746343 -2.51047079 5.66735273 -5 3 C-3.68 3 -2.36 3 -1 3 C-0.67 2.01 -0.34 1.02 0 0 Z " fill="#3760A7" transform="translate(262,204)"/>
<path d="M0 0 C1.670625 0.061875 1.670625 0.061875 3.375 0.125 C0.11647635 2.2973491 -3.21744728 4.19619658 -6.625 6.125 C-5.71577947 1.57889733 -4.95184304 0.17075321 0 0 Z M-7.625 6.125 C-7.295 6.785 -6.965 7.445 -6.625 8.125 C-7.285 7.795 -7.945 7.465 -8.625 7.125 C-8.295 6.795 -7.965 6.465 -7.625 6.125 Z " fill="#073B9D" transform="translate(192.625,778.875)"/>
<path d="M0 0 C0.66 0 1.32 0 2 0 C2.99 3.63 3.98 7.26 5 11 C4.34 10.67 3.68 10.34 3 10 C3 9.01 3 8.02 3 7 C1.68 6.67 0.36 6.34 -1 6 C-0.67 4.02 -0.34 2.04 0 0 Z " fill="#3E69B0" transform="translate(276,393)"/>
<path d="M0 0 C0.66 0 1.32 0 2 0 C2.66 2.64 3.32 5.28 4 8 C2.02 8.33 0.04 8.66 -2 9 C-1.34 6.03 -0.68 3.06 0 0 Z " fill="#3761AC" transform="translate(253,177)"/>
<path d="M0 0 C0.33 1.32 0.66 2.64 1 4 C1.99 3.67 2.98 3.34 4 3 C3.8125 4.8125 3.8125 4.8125 3 7 C0.4375 8.75 0.4375 8.75 -2 10 C-1.34 6.7 -0.68 3.4 0 0 Z " fill="#3361A9" transform="translate(193,215)"/>
<path d="M0 0 C-0.32742187 0.55171875 -0.65484375 1.1034375 -0.9921875 1.671875 C-2.16787715 4.38780923 -2.20248638 6.30551759 -2.125 9.25 C-2.10695312 10.14203125 -2.08890625 11.0340625 -2.0703125 11.953125 C-2.04710937 12.62859375 -2.02390625 13.3040625 -2 14 C-4.2344598 9.96707255 -4.54496743 6.55032566 -5 2 C-2 0 -2 0 0 0 Z " fill="#CCD5E4" transform="translate(215,208)"/>
<path d="M0 0 C0.66 0.33 1.32 0.66 2 1 C1.360625 2.134375 0.72125 3.26875 0.0625 4.4375 C-2.19762109 8.90183812 -2.77062793 13.04556318 -3 18 C-3.33 18 -3.66 18 -4 18 C-4.53449652 10.75460274 -3.71607548 6.27087737 0 0 Z " fill="#4C75B8" transform="translate(826,705)"/>
<path d="M0 0 C0.33 1.32 0.66 2.64 1 4 C-0.9375 6.25 -0.9375 6.25 -3 8 C-3.99 7.67 -4.98 7.34 -6 7 C-4.02 4.69 -2.04 2.38 0 0 Z " fill="#1B4AA9" transform="translate(918,729)"/>
<path d="M0 0 C0.66 0 1.32 0 2 0 C0.68775452 3.93673644 -0.91910327 6.22719294 -4 9 C-4.33 8.01 -4.66 7.02 -5 6 C-2.6875 2.8125 -2.6875 2.8125 0 0 Z " fill="#0F41A4" transform="translate(808,397)"/>
<path d="M0 0 C0.66 0.66 1.32 1.32 2 2 C1.828125 4.12890625 1.828125 4.12890625 1.25 6.5625 C1.06953125 7.36816406 0.8890625 8.17382812 0.703125 9.00390625 C0 11 0 11 -2 12 C-1 3.42857143 -1 3.42857143 0 0 Z " fill="#1949A7" transform="translate(973,628)"/>
<path d="M0 0 C0.66 0.33 1.32 0.66 2 1 C-0.97 3.97 -3.94 6.94 -7 10 C-7 6.04435836 -5.59478606 4.89133304 -3 2 C-2.01 1.34 -1.02 0.68 0 0 Z " fill="#EFDBDF" transform="translate(197,501)"/>
<path d="M0 0 C2.31 0 4.62 0 7 0 C7.33 1.98 7.66 3.96 8 6 C4.63408134 4.55746343 2.48952921 2.66735273 0 0 Z " fill="#2957A6" transform="translate(205,218)"/>
<path d="M0 0 C0.33 0.66 0.66 1.32 1 2 C0.05125 2.7425 -0.8975 3.485 -1.875 4.25 C-4.32532401 6.27845219 -5.87325363 7.9577848 -7 11 C-7.33 9.35 -7.66 7.7 -8 6 C-5.36 4.02 -2.72 2.04 0 0 Z " fill="#D0D6E2" transform="translate(269,193)"/>
<path d="M0 0 C0.33 0.66 0.66 1.32 1 2 C-2.63 2.33 -6.26 2.66 -10 3 C-4.15384615 -1.38461538 -4.15384615 -1.38461538 0 0 Z " fill="#D4DEEC" transform="translate(343,65)"/>
<path d="M0 0 C1.485 0.99 1.485 0.99 3 2 C2.67 3.65 2.34 5.3 2 7 C1.01 7.33 0.02 7.66 -1 8 C-0.67 5.36 -0.34 2.72 0 0 Z " fill="#2858A7" transform="translate(293,216)"/>
<path d="M0 0 C0.99 0.33 1.98 0.66 3 1 C1.02 3.31 -0.96 5.62 -3 8 C-3.33 7.01 -3.66 6.02 -4 5 C-3.34 4.01 -2.68 3.02 -2 2 C-1.34 2 -0.68 2 0 2 C0 1.34 0 0.68 0 0 Z " fill="#2450AA" transform="translate(171,172)"/>
<path d="M0 0 C0.33 0 0.66 0 1 0 C1.125 6.625 1.125 6.625 0 10 C-0.66 10 -1.32 10 -2 10 C-1.85950482 8.52031676 -1.71245174 7.04125484 -1.5625 5.5625 C-1.48128906 4.73878906 -1.40007813 3.91507813 -1.31640625 3.06640625 C-1 1 -1 1 0 0 Z " fill="#1445A5" transform="translate(898,763)"/>
<path d="M0 0 C1.1875 1.5 1.1875 1.5 2 4 C1.27101296 6.78824238 0.1843275 9.37665092 -1 12 C-1.66 11.01 -2.32 10.02 -3 9 C-2.1875 6.5625 -2.1875 6.5625 -1 4 C-0.64141484 2.67323492 -0.2981424 1.34164079 0 0 Z " fill="#1C4BA6" transform="translate(993,665)"/>
<path d="M0 0 C4.62 0 9.24 0 14 0 C12.68 1.32 11.36 2.64 10 4 C10 3.01 10 2.02 10 1 C6.7 1 3.4 1 0 1 C0 0.67 0 0.34 0 0 Z " fill="#3764B3" transform="translate(324,383)"/>
<path d="M0 0 C4.29 0 8.58 0 13 0 C13 0.33 13 0.66 13 1 C11.72125 1.12375 10.4425 1.2475 9.125 1.375 C5.65209064 1.69042399 5.65209064 1.69042399 3 4 C2.01 2.68 1.02 1.36 0 0 Z " fill="#2151A4" transform="translate(330,342)"/>
<path d="M0 0 C0.75 1.625 0.75 1.625 1 4 C-0.9375 7.25 -0.9375 7.25 -3 10 C-3.75 8.375 -3.75 8.375 -4 6 C-2.0625 2.75 -2.0625 2.75 0 0 Z " fill="#0F3FA1" transform="translate(93,278)"/>
<path d="M0 0 C0.33 2.97 0.66 5.94 1 9 C0.01 9.495 0.01 9.495 -1 10 C-1 8.02 -1 6.04 -1 4 C-2.32 3.34 -3.64 2.68 -5 2 C-1.125 0 -1.125 0 0 0 Z " fill="#255AB2" transform="translate(919,751)"/>
<path d="M0 0 C0.66 0 1.32 0 2 0 C0.50902342 3.7952131 -1.75700849 5.61042731 -5 8 C-4.75 6.125 -4.75 6.125 -4 4 C-1.9375 2.75 -1.9375 2.75 0 2 C0 1.34 0 0.68 0 0 Z " fill="#1E4CA4" transform="translate(712,722)"/>
<path d="M0 0 C0.33 0 0.66 0 1 0 C1 2.97 1 5.94 1 9 C-0.65 8.01 -2.3 7.02 -4 6 C-3.34 5.34 -2.68 4.68 -2 4 C-1.30251417 2.68252676 -0.63040043 1.35085807 0 0 Z " fill="#355BA6" transform="translate(922,583)"/>
<path d="M0 0 C1.3079635 2.15429283 2.05130331 3.45276464 1.8125 6 C0.86632381 8.32904908 -0.40941599 10.06363686 -2 12 C-1.44687265 7.97007218 -0.8441938 3.97977076 0 0 Z " fill="#3661AE" transform="translate(725,566)"/>
<path d="M0 0 C0.33 1.32 0.66 2.64 1 4 C-0.65 5.32 -2.3 6.64 -4 8 C-3.50168276 4.31245243 -2.89932357 2.39509338 0 0 Z " fill="#1644A5" transform="translate(166,177)"/>
<path d="M0 0 C1.875 0.3125 1.875 0.3125 4 1 C4.66 1.99 5.32 2.98 6 4 C5.34 4.66 4.68 5.32 4 6 C2.62437146 4.71034824 1.29233607 3.37310707 0 2 C0 1.34 0 0.68 0 0 Z " fill="#0E41A6" transform="translate(162,883)"/>
<path d="M0 0 C-1.39332574 3.36720387 -2.9789286 4.9859524 -6 7 C-6 4 -6 4 -4.125 1.8125 C-2 0 -2 0 0 0 Z " fill="#1241A4" transform="translate(887,855)"/>
<path d="M0 0 C1.9451 2.91765 2.45276317 4.62537285 3 8 C0.525 7.01 0.525 7.01 -2 6 C-1.34 4.02 -0.68 2.04 0 0 Z " fill="#26519E" transform="translate(348,256)"/>
<path d="M0 0 C1.98 0 3.96 0 6 0 C5.67 1.65 5.34 3.3 5 5 C3.0625 4.1875 3.0625 4.1875 1 3 C0.67 2.01 0.34 1.02 0 0 Z " fill="#2152A4" transform="translate(186,203)"/>
<path d="M0 0 C0.33 0 0.66 0 1 0 C2.125 7.75 2.125 7.75 1 10 C0.34 10 -0.32 10 -1 10 C-0.67 6.7 -0.34 3.4 0 0 Z " fill="#2E5CAE" transform="translate(980,592)"/>
<path d="M0 0 C0.33 0.66 0.66 1.32 1 2 C-1.64 3.98 -4.28 5.96 -7 8 C-6 4 -6 4 -2.9375 1.75 C-1.968125 1.1725 -0.99875 0.595 0 0 Z " fill="#D5DAE7" transform="translate(362,345)"/>
<path d="M0 0 C0.99 0.33 1.98 0.66 3 1 C3.33 2.98 3.66 4.96 4 7 C2.68 6.34 1.36 5.68 0 5 C0 3.35 0 1.7 0 0 Z " fill="#25509C" transform="translate(361,306)"/>
</svg>
